<?xml version="1.0" encoding="utf-8"?>
<!-- Generator: Adobe Illustrator 23.0.1, SVG Export Plug-In . SVG Version: 6.00 Build 0)  -->
<svg version="1.1" xmlns="http://www.w3.org/2000/svg" xmlns:xlink="http://www.w3.org/1999/xlink" x="0px" y="0px"
	 viewBox="0 0 1231 1153.6" style="enable-background:new 0 0 1231 1153.6;" xml:space="preserve">
<style type="text/css">
	.st0{display:none;}
	.st1{display:inline;opacity:0.1;fill:#38D39F;enable-background:new    ;}
	.st2{display:inline;fill:#38D39F;}
	.st3{display:inline;fill:#444053;}
	.st4{display:inline;fill:#3A3768;}
	.st5{display:inline;fill:#E6E8EC;}
	.st6{display:inline;opacity:0.1;enable-background:new    ;}
	.st7{display:inline;fill:url(#SVGID_1_);}
	.st8{display:inline;fill:#8E6F7F;}
	.st9{display:inline;fill:#5F5570;}
	.st10{display:inline;fill:#EAEAF2;}
	.st11{display:inline;fill:#BC8487;}
	.st12{display:inline;fill:#FFC4D0;}
	.st13{display:inline;opacity:0.1;}
	.st14{display:inline;fill:#FFD037;}
	.st15{display:inline;fill:#A8A8A8;}
	.st16{display:inline;opacity:0.2;enable-background:new    ;}
	.st17{display:inline;}
	.st18{display:inline;clip-path:url(#SVGID_3_);fill:url(#SVGID_4_);}
</style>
<g id="ae7ad495-543d-4c4b-9483-8059c5566fe6" class="st0">
	<title>personalization</title>
	<path class="st1" d="M586.6,111.4c-64.7-2.2-126.4-23.1-185.2-46S284.2,17.2,221,5.1C180.4-2.7,133.9-3.8,101.2,18
		C69.7,39,59.5,75.1,54,108.7c-4.1,25.3-6.5,51.9,4.7,75.5c7.8,16.4,21.7,30.2,31.4,46c33.5,54.7,9.8,122.2-26.4,175.6
		c-17,25.1-36.8,49-49.9,75.7c-13.1,26.7-19.2,57.3-7.7,84.5c11.4,27,38.5,47.2,67.9,61.5c59.7,29,130,37.2,198.6,41.9
		c151.8,10.4,304.5,5.9,456.7,1.4c56.3-1.7,112.9-3.4,168.3-12.1c30.8-4.8,62.6-12.5,84.9-31c28.4-23.5,35.4-63.4,16.4-92.9
		c-31.9-49.5-120-61.8-142.3-114.9c-12.3-29.2,0.3-61.8,18.2-88.9c38.2-58.2,102.3-109.2,105.7-175.7c2.3-45.7-28.5-91.4-76.1-113
		c-49.9-22.6-119.2-19.8-156,17.7C710.4,98.5,643.7,113.4,586.6,111.4z"/>
	<ellipse class="st1" cx="483.5" cy="781" rx="304" ry="41.1"/>
	<path class="st2" d="M333,658.6c0,0,21-3.4,33.6,11.5c0,0-9.2,7.3-29.1-2.8L333,658.6z"/>
	<path class="st2" d="M330.8,658.2c0,0-13.4,16.6-6.8,34.9c0,0,10.9-4.4,12.1-26.6L330.8,658.2z"/>
	<path class="st2" d="M318.8,631.1c0,0,8.4-15.4,42,6.2c0,0-4.5,10.4-19.3,9.5S322.6,639.2,318.8,631.1z"/>
	<path class="st2" d="M316.6,630c0,0-17.4-2-19.1,37.9c0,0,11,2.3,18.9-10.3S320.9,637.9,316.6,630z"/>
	<path class="st2" d="M306.4,598.2c0,0,9.8-27.2,45.4-7.8c0,0-8.1,24.9-41.7,17.1L306.4,598.2z"/>
	<path class="st2" d="M295.5,557.6c0,0,18.5-27.4,51.2-2c0,0-11.5,25.8-48.5,11.8L295.5,557.6z"/>
	<path class="st2" d="M291.6,519c0,0,21.6-25.2,54,0c0,0-20.5,22.1-54,6.4V519z"/>
	<path class="st2" d="M288.2,481.4c0,0,21.8-26.3,52.9-1.4c0,0-24.6,23.2-52.9,7.6V481.4z"/>
	<path class="st2" d="M290.2,448.1c0,0,23-33.9,52.1-10.9c0,0-24.6,29.1-52.1,17.4V448.1z"/>
	<path class="st2" d="M295.5,409.2c0,0,24.4-33.6,52.6-7.8c0,0-28.9,29.1-52.6,14V409.2z"/>
	<path class="st2" d="M303.6,374.4c0,0,28.8-31.6,54-19c0,0-30.1,33.5-55.3,27.4L303.6,374.4z"/>
	<path class="st2" d="M313.7,341.4c0,0,33.3-38.6,52.6-25.8c0,0-24.5,30-55,33L313.7,341.4z"/>
	<path class="st2" d="M328.2,303.2c0,0,29.1-31.6,50.4-23.7c0,0-24.9,32.8-54.3,33.6L328.2,303.2z"/>
	<path class="st2" d="M341.4,267.4c0,0,32.2-30.2,46.2-24.9c0,0-23.2,33.6-47.6,31.6L341.4,267.4z"/>
	<path class="st2" d="M354.3,234.3c0,0,27.7-36.1,42.8-33.3c0,0-16.8,32.2-42.8,37V234.3z"/>
	<path class="st2" d="M368.3,189.8c0,0,24.5-27.7,37.7-27.6c0,0-19.3,37-38.7,36.7L368.3,189.8z"/>
	<path class="st2" d="M376.5,160.1l23.7-57.7c0,0,1.2,52.1-26.7,68.4L376.5,160.1z"/>
	<path class="st2" d="M386.1,96.5c0,0,3.9-48.2,1.4-52.1c0,0,16.9,40-1.6,73.4L386.1,96.5z"/>
	<path class="st2" d="M305.5,597.5c0,0-24.5-15.2-40.4,22c0,0,21.8,14.5,43.3-12.5L305.5,597.5z"/>
	<path class="st2" d="M294.7,556c0,0-30.1-13.7-44.7,25.1c0,0,23.3,16,47.5-15.3L294.7,556z"/>
	<path class="st2" d="M290.2,521.3c0,0-21.6-25.2-54,0c0,0,20.4,22.1,54,6.4V521.3z"/>
	<path class="st2" d="M287.5,481.4c0,0-21.9-26.3-52.9-1.4c0,0,24.6,23.2,52.9,7.6V481.4z"/>
	<path class="st2" d="M290.2,449.1c0,0-15.3-38-48.6-21.6c0,0,18,33.7,47.3,27.9L290.2,449.1z"/>
	<path class="st2" d="M297.4,409c0,0-15.2-38.6-49-20.7c0,0,20.7,35.4,47.5,26.7L297.4,409z"/>
	<path class="st2" d="M306.8,374.6c0,0-6-42.3-34-46.1c0,0,5.9,44.6,30.2,53.8L306.8,374.6z"/>
	<path class="st2" d="M314.4,341.5c0,0-2.4-51-25.5-52.8c0,0,0.8,38.7,22.9,60L314.4,341.5z"/>
	<path class="st2" d="M330.6,301.7c0,0-6.9-42.4-29-47.6c0,0,2.7,41.1,26.8,58L330.6,301.7z"/>
	<path class="st2" d="M344,267.7c0,0-0.2-44.2-13.7-50.7c0,0-8.4,40,9.8,56.3L344,267.7z"/>
	<path class="st2" d="M355.3,233.8c0,0-1.9-45.5-15.9-51.9c0,0-4.8,36,13.8,54.9L355.3,233.8z"/>
	<path class="st2" d="M370.2,193.4c0,0-0.1-37-10.1-45.7c0,0-9.9,40.5,4.9,53.1L370.2,193.4z"/>
	<path class="st2" d="M375.4,158.3l-9.7-61.6c0,0-13.2,50.5,10.2,72.7L375.4,158.3z"/>
	<path class="st2" d="M377.3,97.1c0,0-24.9-41.4-24.4-46c0,0,2.6,43.4,34,65L377.3,97.1z"/>
	<path class="st2" d="M380.2,84.9c0,0-23.5-58.8-34.2-63.6c0,0,33.6,17.1,36.1,61.9L380.2,84.9z"/>
	<path class="st3" d="M367.1,199.2l-1.6-0.5c19.9-64.7,24.8-106,14-116.3l1.2-1.2C392.1,92,387.5,132.8,367.1,199.2z"/>
	<path class="st3" d="M312.5,350.7l-2.4-0.8c2.1-5.9,4.4-12,6.8-17.9c20.7-51.6,38.4-99.7,49.7-136.5l2.1-1
		c-11.3,36.9-28.6,86.8-49.4,138.5C316.8,338.8,314.6,344.8,312.5,350.7z"/>
	<path class="st3" d="M362.6,707c-0.3-0.4-32.5-36.6-54.9-98.4c-13.1-36.2-20.5-74.3-21.7-112.8c-1.5-48.1,8.6-101.9,25.9-150.7
		l1.9,2.2c-38.8,109.6-23.4,203.5-2.9,260c22.2,61.3,54,97.1,54.3,97.5L362.6,707z"/>
	<path class="st4" d="M645.1,289.8h4.3c1.3,0,2.3,1,2.3,2.3v68.4c0,1.3-1,2.3-2.3,2.3h-4.3c-1.3,0-2.3-1-2.3-2.3v-68.4
		C642.8,290.8,643.8,289.8,645.1,289.8z"/>
	<path class="st4" d="M350.7,232.6h0.4c1.3,0,2.3,1,2.3,2.3v19.5c0,1.3-1,2.3-2.3,2.3h-0.4c-1.3,0-2.3-1-2.3-2.3v-19.5
		C348.4,233.6,349.4,232.6,350.7,232.6z"/>
	<path class="st4" d="M350.5,276.6h1c1.3,0,2.3,1,2.3,2.3v37.3c0,1.3-1,2.3-2.3,2.3h-1c-1.3,0-2.3-1-2.3-2.3v-37.3
		C348.2,277.7,349.2,276.6,350.5,276.6z"/>
	<path class="st4" d="M350.6,333.1h0.7c1.3,0,2.3,1,2.3,2.3V373c0,1.3-1,2.3-2.3,2.3h-0.7c-1.3,0-2.3-1-2.3-2.3v-37.6
		C348.3,334.1,349.3,333.1,350.6,333.1z"/>
	<path class="st4" d="M390.2,153.2h218.4c21.5,0,39,17.5,39,39v524.4c0,21.5-17.5,39-39,39H390.2c-21.5,0-39-17.5-39-39V192.2
		C351.2,170.6,368.6,153.2,390.2,153.2z"/>
	<path class="st2" d="M605.8,168.8h-34v4.1c0,10.7-8.7,19.4-19.4,19.4c0,0,0,0,0,0H444.2c-10.7,0-19.4-8.7-19.4-19.4c0,0,0,0,0,0
		v-4.1H393c-13,0-23.5,10.5-23.5,23.5v0v524c0,13,10.5,23.5,23.5,23.5h212.7c13,0,23.5-10.5,23.5-23.5V192.4
		C629.3,179.4,618.8,168.8,605.8,168.8C605.8,168.8,605.8,168.8,605.8,168.8z"/>
	<path class="st5" d="M474.7,171.2h33.6c2.1,0,3.9,1.7,3.9,3.9v0.7c0,2.1-1.7,3.9-3.9,3.9h-33.6c-2.1,0-3.9-1.7-3.9-3.9V175
		C470.8,172.9,472.5,171.2,474.7,171.2z"/>
	<circle class="st5" cx="523.2" cy="175.4" r="4.8"/>
	<path class="st2" d="M750.2,126.7c0,0-84.2-5.1-74.3,53.9c0,0-2,10.4,7.5,15.2c0,0,0.2-4.4,8.6-2.9c3,0.5,6.1,0.6,9.2,0.4
		c4.1-0.3,8-1.9,11.2-4.6l0,0c0,0,23.7-9.8,32.9-48.5c0,0,6.8-8.4,6.5-10.6l-14.2,6.1c0,0,4.9,10.2,1,18.8c0,0-0.5-18.4-3.2-18
		c-0.5,0.1-7.4,3.6-7.4,3.6s8.3,17.9,2,30.8c0,0,2.4-22-4.7-29.5l-10,5.8c0,0,9.8,18.4,3.1,33.5c0,0,1.7-23.1-5.2-32.1l-9.1,7.1
		c0,0,9.2,18.2,3.6,30.6c0,0-0.7-26.9-5.5-28.9c0,0-7.9,7-9.1,9.9c0,0,6.3,13.2,2.4,20.2c0,0-2.4-17.9-4.3-18c0,0-7.9,11.9-8.7,20
		c0,0,0.3-12.1,6.8-21.1c0,0-7.6,1.3-12.1,6.3c0,0,1.2-8.4,14-9.1c0,0,6.5-9,8.3-9.5c0,0-12.7-1.1-20.5,2.4c0,0,6.8-7.9,22.8-4.3
		l9-7.3c0,0-16.8-2.3-23.9,0.2c0,0,8.2-7,26.3-1.9l9.7-5.8c0,0-14.3-3.1-22.8-2c0,0,9-4.9,25.7,0.4l7-3.1c0,0-10.5-2.1-13.5-2.4
		S716,131,716,131c6.6-1.1,13.5-0.3,19.7,2.2C735.7,133.2,750.5,127.7,750.2,126.7z"/>
	<path class="st2" d="M663.8,100.5c0,0-38-2.3-33.6,24.4c0,0-0.9,4.7,3.4,6.9c0,0,0.1-2,3.9-1.3c1.4,0.2,2.8,0.3,4.1,0.2
		c1.9-0.1,3.6-0.9,5-2.1l0,0c0,0,10.7-4.4,14.9-21.9c0,0,3.1-3.8,3-4.8l-6.4,2.7c0,0,2.2,4.6,0.5,8.5c0,0-0.2-8.3-1.4-8.1
		c-0.2,0-3.3,1.6-3.3,1.6s3.8,8.1,0.9,13.9c0,0,1.1-9.9-2.1-13.4l-4.5,2.7c0,0,4.4,8.3,1.4,15.1c0,0,0.8-10.4-2.4-14.5l-4.1,3.2
		c0,0,4.1,8.2,1.6,13.9c0,0-0.3-12.1-2.5-13.1c0,0-3.6,3.2-4.1,4.5c0,0,2.8,6,1.1,9.1c0,0-1.1-8.1-2-8.1c0,0-3.6,5.4-3.9,9
		c0.2-3.4,1.2-6.7,3.1-9.5c-2.1,0.4-4,1.4-5.5,2.8c0,0,0.6-3.8,6.3-4.1c0,0,3-4.1,3.7-4.3c0,0-5.8-0.5-9.2,1.1c0,0,3.1-3.6,10.3-1.9
		l4-3.3c0,0-7.6-1-10.8,0.1c0,0,3.7-3.2,11.9-0.9l4.4-2.6c0,0-6.5-1.4-10.3-0.9c0,0,4.1-2.2,11.6,0.2l3.2-1.4c0,0-4.7-0.9-6.1-1.1
		s-1.5-0.5-1.5-0.5c3-0.5,6.1-0.2,8.9,1C657.2,103.4,664,100.9,663.8,100.5z"/>
	<rect x="395.9" y="226.2" class="st6" width="206.9" height="439.2"/>
	
		<linearGradient id="SVGID_1_" gradientUnits="userSpaceOnUse" x1="491.1981" y1="198.9088" x2="698.0695" y2="198.9088" gradientTransform="matrix(1 0 0 -1 -95.23 809.71)">
		<stop  offset="0" style="stop-color:#808080;stop-opacity:0.25"/>
		<stop  offset="0.54" style="stop-color:#808080;stop-opacity:0.12"/>
		<stop  offset="1" style="stop-color:#808080;stop-opacity:0.1"/>
	</linearGradient>
	<path class="st7" d="M596.5,788c0,0-4.9-11.4-7.1-16.6c-1.2-3-3.3-3.5-4.9-3.4l0.1-1l0.4-4.7l0.1-1c3.8-0.8,7-1.4,7-1.4l-2.4-121.3
		c0,0-1-1.3-3.4-9c-1.2-3.8-7-8.6-12.4-12.3c-0.8-0.6-1.7-1.2-2.5-1.7c2-1.7,4-3.2,6.2-4.6c3.1-1.8,4.1-12,4.1-12l-0.5,1
		c0.5-1,0-27.1,0-27.1l-1.8-27.1c0,0-1.3-32.2-11.3-40.6c-10-8.4-22.6-11.4-22.6-11.4l-7-1.8l0,0l-12.9-3.3c-0.4-0.6-0.7-1.2-1-1.9
		c-0.1-0.2-0.2-0.5-0.4-0.8c8-5.7,12.8-14.9,12.8-24.6c0-1.6-0.1-3.2-0.4-4.8c0-0.3-0.1-0.6-0.2-0.9c1.1-0.7,2.1-1.5,3-2.4
		c1.5-1.2,2.8-2.7,3.7-4.5l0,0c0.1-0.3,0.3-0.7,0.3-1c0-0.1,0-0.2,0.1-0.3s0.1-0.5,0.1-0.8c0-0.1,0-0.2,0-0.3c0-0.3,0-0.6,0-0.9
		c0-0.1,0-0.1,0-0.2c0-0.3,0-0.7-0.1-1c0,0,0,0,0-0.1l0,0c-0.2-1.2-0.5-2.3-0.9-3.4c-1-2.6-2.3-5-2.8-7.8c-0.6-3.2,0.1-6.8-1.5-9.7
		c-1.3-2.2-3.5-3.8-6.1-4.2c-2.5-0.4-5.1-0.1-7.5,0.9c-1.2,0.6-2.4,0.9-3.7,1c-0.9-0.1-1.9-0.3-2.7-0.7c-3-1.2-5.8-2.7-8.4-4.5
		c-1.9-1.5-3.9-2.8-6-3.9c-2.1-1.1-4.7-1.2-6.9-0.3c-3.7,1.9-4.4,7.1-7.8,9.4c-2.4,1.6-5.5,1.4-8.3,1.5s-6.1,0.8-7.5,3.3
		c-1,1.7-0.8,3.8-0.6,5.8l0.1,0.7c0,0.2,0,0.5,0.1,0.7c0.2,2.6-0.2,5.1-1.1,7.6c-1.4,3.7-4,7.3-3.9,11l0,0c0,0.6,0.1,1.2,0.2,1.8
		c0.1,0.3,0.2,0.6,0.3,0.9l0,0c0.6,1.2,1.2,2.4,1.8,3.6l0.1,0.2c0.1,0.1,0.1,0.3,0.2,0.4s0.2,0.4,0.2,0.6s0.1,0.2,0.1,0.3
		s0.1,0.4,0.2,0.6c0.2,0.6,0.2,1.2,0.2,1.7c-0.1,0.8-0.2,1.5-0.2,2.3c0,0.8,0.6,1.5,1.3,1.6c0.4,0,0.8-0.1,1.2-0.4
		c0.9-0.5,1.8-1.1,2.5-1.8c0,0.3,0,0.6,0.1,1c0.7,7.2,3.9,13.8,9.1,18.8c0,0.3,0,0.6-0.1,1s0,0.7-0.1,1.1l0,0l-11.2,3.5
		c0,0,0.1,0.2,0.2,0.5l-1.2,0.5l0,0c-5.8,2.3-12.3,5.3-15.9,7.9c-1.6,1.2-3.1,2.1-4.4,2.9c-4.8,2.9-8.4,7.3-10.4,12.6l-0.2,0.4
		c-1,2.3-5.9,17.9-5.9,17.9s-3.6,8.7-4.1,14.3c0,0-5.9,18.6-4.4,30.9c0,0-4.6,17.6-2.8,20.4c0,0-1.8,7.6,6.2,15.2
		c-0.6,0.4-1.2,0.8-1.9,1.2c-6.3,3.9-15.3,10.3-16.8,15.3c-2.4,7.7-3.4,9-3.4,9l-2.4,121.1c0,0,3.2,0.6,7,1.4l0.1,1l0.4,4.7l0.1,1
		c-1.6-0.1-3.7,0.5-4.9,3.4c-2.2,5.2-7,16.6-7,16.6s-10.8,10-4.2,19.3c0.3,0.4,0.6,0.8,1,1.2c4.7,4.3,14.7,1.5,21.8-1.2
		c3.6-1.5,6.7-4.1,9-7.3c0.6-0.8,1.4-1.2,2.4-1.3c1.6-0.3,3.2-0.9,4.5-2c1.6-1.2,2.5-3,2.5-5c0,0,0-0.1,0-0.2l-0.6-14.2
		c0,0-0.8-9.9-3.2-9.3l-0.6,0.2l-0.2-1l0,0l-0.3-1.9l-0.2-1h1.4c0,0,0.3-11.2,4.5-20.1s6.8-80.2,6.8-80.2s50.9,0.8,52.6-3.9l0,0
		c1,0,2.1,0,3.1-0.1c1.7,4.8,49.7,5,49.7,5s2.7,71.5,6.8,80.3c0.9,1.9,1.6,3.9,2.2,5.9l0,0c1.3,4.6,2.1,9.4,2.3,14.2h1.4l-0.2,1
		l-0.3,1.9l-0.2,1l-0.7-0.2c-2.4-0.6-3.2,9.3-3.2,9.3l-0.7,14.3c-0.1,2,0.8,3.8,2.4,5c1.3,1,2.9,1.7,4.5,2c1,0.1,1.8,0.6,2.4,1.3
		c2.3,3.2,5.4,5.7,9,7.3c7.7,3,18.7,5.9,22.8,0.1C607.3,798,596.5,788,596.5,788z M467.2,609.7L467.2,609.7h0.1H467.2z M547.6,568.8
		c0,0,1.3,4.8,3.6,7.4s1.2,18.4,1.2,18.4c-0.9,0.1-1.8,0.2-2.7,0.4C547.9,584.5,546.2,572.8,547.6,568.8z"/>
	<polygon class="st8" points="437,768.4 416.9,770.4 416.3,763.7 415.9,759.1 415.4,752.3 434.4,753.3 435.9,762 436.2,763.9 
		436.2,763.9 	"/>
	<polygon class="st8" points="583.4,753.3 582.9,760.1 582.5,764.7 581.9,771.4 561.8,769.4 562.6,764.9 562.9,763 564.4,754.3 	"/>
	<path class="st9" d="M562.1,655.9l-59.8,2.8c-2.7,0.1-5.4,0.1-8.2,0l-57.1-2.8v-45.3h125.1V655.9z"/>
	<path class="st6" d="M562.1,655.9l-59.8,2.8c-2.7,0.1-5.4,0.1-8.2,0l-57.1-2.8v-45.3h125.1V655.9z"/>
	<path class="st10" d="M485.5,488.7c0,0-19.9,6.7-27.4,12.2c-1.6,1.1-3,2.1-4.3,2.8c-4.6,2.9-8.2,7.2-10.1,12.3
		c0,0.1-0.1,0.3-0.2,0.4c-1,2.2-5.8,17.5-5.8,17.5s-3.5,8.5-4,14s28.5,20.2,28.5,20.2s-14,30.5-7.8,38.2s97.5,11.5,95.5,0
		s-5.5-30.5-3.8-35.8l31-22.5c0,0-1.2-31.5-11-39.8c-9.8-8.2-22-11.2-22-11.2l-19.4-5c0,0-6.8,17-14.3,19.2
		C503.1,513.7,486.7,503.3,485.5,488.7z"/>
	<path class="st6" d="M513.5,517.4c0,0-8.5,7.1-12.9,0c0,0-4,11.9,0,15.9l-0.2,0.8l-0.7,3.6l-9.3,77l7.6,13.2l13.9-17.4l-1.1-72
		l-0.5-4.1l-0.1-1h2.4C512.6,533.3,518.9,522.4,513.5,517.4z"/>
	<path class="st6" d="M515.5,517.4c0,0-8.5,7.1-12.9,0c0,0-4,11.9,0,15.9l-0.2,0.8l-0.7,3.6l-9.3,77l7.6,13.2l13.9-17.4l-1.1-72
		l-0.5-4.1l-0.1-1h2.4C514.6,533.3,520.9,522.4,515.5,517.4z"/>
	<polygon class="st11" points="513,609.4 499.1,626.8 491.5,613.7 500.7,536.7 501.4,533.1 501.6,532.3 502.9,529.1 511.2,532.3 
		511.4,533.3 511.9,537.4 	"/>
	<path class="st6" d="M435.9,762c-4.3,0-8.6-0.5-12.8-1.3c-2.1-0.5-4.7-1.1-7.1-1.6l-0.6-6.8l19,1L435.9,762z"/>
	<path class="st9" d="M499.2,658.8c-1.7,4.7-51.2,3.8-51.2,3.8s-2.7,70-6.7,78.7S437,761,437,761s-8.7,0-14-1.3s-14-3-14-3
		l2.3-118.8c0,0,1-1.2,3.3-8.8c1.5-4.8,10.3-11.1,16.4-15c3.4-2.1,5.9-3.5,5.9-3.5l29.6,1.2l18.3,0.7
		C484.9,612.6,500.9,654.2,499.2,658.8z"/>
	<path class="st6" d="M437,768.4l-20.1,2l-0.6-6.7c0.8,0,1.5,0.2,2.2,0.5c3.7,2.6,14.2,0.5,17.7-0.3l0,0L437,768.4z"/>
	<path class="st11" d="M440.8,787.9c0,1.9-0.9,3.8-2.4,4.9c-1.3,1-2.8,1.6-4.3,1.9c-0.9,0.1-1.8,0.6-2.3,1.3
		c-2.2,3.1-5.3,5.6-8.8,7.1c-6.9,2.7-16.7,5.4-21.2,1.2c-0.4-0.3-0.7-0.7-1-1.1c-6.4-9.1,4.1-18.9,4.1-18.9s4.7-11.1,6.9-16.2
		c0.9-2.6,3.8-4,6.4-3.1c0.2,0.1,0.3,0.1,0.5,0.2c4,2.9,16.1,0.1,18.5-0.5s3.1,9.1,3.1,9.1l0.6,13.9
		C440.8,787.8,440.8,787.8,440.8,787.9z"/>
	<path class="st6" d="M583.4,753.3l-0.6,6.8c-2.4,0.5-5,1.1-7.1,1.6c-4.2,0.8-8.5,1.3-12.8,1.3l1.5-8.7L583.4,753.3z"/>
	<path class="st9" d="M589.8,757.7c0,0-8.7,1.7-14,3s-14,1.3-14,1.3s-0.3-11-4.3-19.7s-6.7-78.7-6.7-78.7s-46.8-0.3-48.5-4.9
		s20.4-45,20.4-45l13.5-0.7l25.6-1.4c0,0,5,2.7,10.2,6.4s10.9,8.3,12.1,12.1c2.3,7.5,3.3,8.8,3.3,8.8L589.8,757.7z"/>
	<path class="st6" d="M582.5,764.7l-0.6,6.7l-20.1-2l0.8-4.5c3.5,0.8,14,2.9,17.7,0.3C581,764.9,581.7,764.7,582.5,764.7z"/>
	<path class="st11" d="M580.3,766.2c2.5-1.2,5.5-0.1,6.7,2.4c0.1,0.2,0.2,0.3,0.2,0.5c2.1,5.1,6.9,16.2,6.9,16.2s10.5,9.8,4.1,18.9
		c-4,5.7-14.8,2.8-22.2-0.1c-3.5-1.5-6.6-4-8.8-7.1c-0.6-0.7-1.4-1.2-2.3-1.3c-1.6-0.3-3.2-1-4.4-2c-1.5-1.1-2.4-3-2.3-4.9l0.6-14
		c0,0,0.8-9.7,3.1-9.1S576.3,769,580.3,766.2z"/>
	<path class="st12" d="M528.6,497.2l-20.2,21.4l-0.6,0.6l-0.7-0.4c-4.2-2.5-25.3-15.2-23.5-19.1c1-2.2,1.6-6.7,1.9-10.6
		c0-0.5,0.1-0.9,0.1-1.4c0.2-3.1,0.2-5.5,0.2-5.5s38-6.5,36.5,0c-0.6,2.6,0.3,5.6,1.6,8.2c0.4,0.8,0.8,1.5,1.2,2.1
		C526.2,494.1,527.3,495.7,528.6,497.2z"/>
	<path class="st6" d="M523.9,490.4c-11.7,8.6-28,7.5-38.3-2.7c0.2-3.1,0.2-5.5,0.2-5.5s38-6.5,36.5,0
		C521.8,484.8,522.7,487.8,523.9,490.4z"/>
	<path class="st12" d="M536,465.5c0.2,16.4-12.9,29.9-29.2,30.1c-15.6,0.2-28.7-11.7-30-27.3c-0.1-0.9-0.1-1.9-0.1-2.8
		c-0.3-16.4,12.7-29.9,29.1-30.2c16.4-0.3,29.9,12.7,30.2,29.1C536,464.7,536,465.1,536,465.5L536,465.5z"/>
	<path class="st6" d="M535.6,460.7c-1.6,1.3-3.6,1.8-5.6,1.5c-4.6-1-6.2-8-10.8-8.5s-7.8,6-12.5,5.9c-2,0-3.8-1.4-5.6-2.3
		c-3.2-1.6-8.5-2.6-12-1.4c-5.2,1.8-7,6.6-10.3,10.5c-0.6,0.7-1.2,1.3-1.9,1.8c-0.1-0.9-0.1-1.9-0.1-2.8
		c-0.1-16.4,13-29.8,29.4-29.9C520.9,435.4,533.5,446.1,535.6,460.7L535.6,460.7z"/>
	<path class="st8" d="M501.1,456.4c1.8,0.9,3.6,2.2,5.6,2.3c4.7,0.1,7.8-6.4,12.5-5.9s6.2,7.5,10.8,8.5c3.1,0.7,6-1.6,8.3-3.8
		c1.5-1.2,2.7-2.7,3.6-4.4c1-2.5,0.5-5.3-0.5-7.9s-2.2-4.9-2.7-7.6c-0.6-3.2,0.1-6.7-1.4-9.5c-1.3-2.2-3.4-3.7-5.9-4.1
		c-2.5-0.4-5-0.1-7.3,0.8c-1.1,0.5-2.4,0.9-3.6,1c-0.9-0.1-1.8-0.3-2.7-0.6c-2.9-1.1-5.6-2.6-8.2-4.4c-1.8-1.5-3.8-2.7-5.8-3.8
		c-2.1-1.1-4.6-1.2-6.7-0.3c-3.6,1.8-4.3,7-7.6,9.2c-2.3,1.6-5.3,1.4-8.1,1.5s-6,0.8-7.3,3.2c-1.2,2.1-0.6,4.7-0.4,7
		c0.1,2.5-0.2,5-1.1,7.4c-1.5,4.1-4.7,8.2-3.6,12.5c0.7,2.8,3.2,5.1,3.1,8c-0.1,0.7-0.2,1.5-0.2,2.2c0,0.8,0.6,1.4,1.3,1.6
		c0.4,0,0.8-0.1,1.1-0.4c1.7-0.9,3.2-2.1,4.4-3.6c3.4-3.9,5.1-8.7,10.4-10.5C492.6,453.8,497.8,454.8,501.1,456.4z"/>
	<path class="st12" d="M535.5,630.9l-5.4,1.5l-12.5,3.4c-2.9,2.2-6.1,3.8-9.6,4.8c-7.6,1.9-12.6-2.3-16.7-8.8
		c-1.7-2.6-0.8-4.7,1.3-6.3c5.2-3.9,18.1-5.2,22-4.7c2.6,0.2,5.2-0.2,7.6-1.2c1.7-0.6,3.3-1.4,4.9-2.3L535.5,630.9z"/>
	<path class="st6" d="M535.5,630.9l-5.4,1.5c-1.5-4.7-4.1-10.5-7.8-12.8c1.7-0.6,3.3-1.4,4.9-2.3L535.5,630.9z"/>
	<path class="st6" d="M572,618.1c-2.2,1.8-4.1,3.5-4.1,3.5s-26,8.2-31,18.4c0,0-4-20-12.5-20.2c0,0,9.2-3.6,11.8-6.7l25.6-1.3
		C561.8,611.7,566.8,614.4,572,618.1z"/>
	<path class="st10" d="M571.6,539.7l5.8,8.5l1.8,26.5c0,0,0.5,25.5,0,26.5l0.5-1c0,0-1,10-4,11.8s-9.8,7.6-9.8,7.6s-26,8.2-31,18.4
		c0,0-4-20-12.5-20.2c0,0,12.8-5,12.5-8.2c0,0,9.8-8.8,10.5-11s5.6-2.5,5.6-2.5s1.1-15.5-1.1-18s-3.5-7.2-3.5-7.2L571.6,539.7z"/>
	<path class="st6" d="M508,640.6c-7.6,1.9-12.6-2.3-16.7-8.8c-1.7-2.6-0.8-4.7,1.3-6.3l0.8,0.3C493.5,625.8,507.2,631.8,508,640.6z"
		/>
	<path class="st12" d="M504.9,648.5c-9,12.5-25.8-4.9-27-8.4c-0.5-1.3-2.2-2.4-4.1-3.3c-2.5-1.1-5.1-2-7.8-2.6l14.9-12.1l2.8,1.1
		l8.8,3.5C492.5,626.8,513.9,636,504.9,648.5z"/>
	<path class="st6" d="M483.7,623.3c-8.2,3.9-10,9.5-10,13.5c-2.5-1.1-5.1-2-7.8-2.6l14.9-12.1L483.7,623.3z"/>
	<path class="st6" d="M470.6,644.9c0,0-24-19-35.5-27.2c-1.4-1-2.8-2.2-4-3.5c3.4-2.1,5.9-3.5,5.9-3.5l29.6,1.2
		c0.8,1.4,1.3,2.3,1.3,2.3l16,10.5C464.6,630.9,470.6,644.9,470.6,644.9z"/>
	<path class="st10" d="M438.6,545.2l-4.8,2.8c0,0-5.8,18.2-4.2,30.2c0,0-4.5,17.2-2.8,20c0,0-2.2,9.2,9.2,17.5s35.5,27.2,35.5,27.2
		s-6-14,13.2-20.2l-16-10.5c0,0-5.4-10.7-10.5-13c0,0-4-4-1.5-6.8s4.5-5.8,4.5-8.5s1-15.8,1-15.8l3-14L438.6,545.2z"/>
	<path class="st6" d="M511.4,533.3h-9.8c-0.1-0.1-0.1-0.1-0.2-0.2l0.2-0.8l1.2-3.2l8.4,3.2L511.4,533.3z"/>
	<path class="st11" d="M514.5,516.4c0,0-8.5,7.1-12.9,0c0,0-4,11.9,0,15.9h12C513.6,532.3,519.9,521.4,514.5,516.4z"/>
	<path class="st6" d="M525.9,493.2l12.6,3.2c0,0-11.9,31-14.6,31l-15.1-7.2L525.9,493.2z"/>
	<path class="st6" d="M528.6,497.2l-20.2,21.4l-0.6,0.6l-0.7-0.4l17.6-26.9l0.4,0.7C526.2,494.2,527.3,495.7,528.6,497.2z"/>
	<path class="st10" d="M524.9,492.2l12.6,3.2c0,0-11.9,31-14.6,31l-15.1-7.2L524.9,492.2z"/>
	<path class="st6" d="M484.5,489.7l-10.9,3.4c0,0,10.8,32.5,13.8,34.3l19.5-7.2L484.5,489.7z"/>
	<path class="st6" d="M508.4,518.6l-0.6,0.6c0,0-26.2-15.3-24.2-19.5c1-2.2,1.6-6.7,1.9-10.6v-0.6L508.4,518.6z"/>
	<path class="st10" d="M485.5,488.7l-10.9,3.4c0,0,10.8,32.5,13.8,34.3l19.5-7.2L485.5,488.7z"/>
	<path class="st6" d="M459.5,541.8c0,0,6.6,1.2,6.5,8s2.7-8.8,2.7-8.8L459.5,541.8z"/>
	<path class="st6" d="M461,562.8c0,0-1.8,10.3,0,19.7s1.7,12.5,3.1,13S461,562.8,461,562.8z"/>
	<path class="st6" d="M545,561.8c-2,0.3-3.4,2.1-3.1,4c0,0.2,0.1,0.4,0.1,0.6C542.9,570.7,545,561.8,545,561.8z"/>
	<path class="st6" d="M430.7,596.8c0,0,21.4-1.8,25,2S430.7,596.8,430.7,596.8z"/>
	<path class="st6" d="M555,598.3c0,0,15.7-1.9,19.3,0.7"/>
	<path class="st6" d="M561.4,600.8c0,0,9.3,0.3,11.5,1.5"/>
	<path class="st6" d="M563.2,604.2c0,0,8.5-0.3,9.7,1"/>
	<path class="st6" d="M443.3,651.2c0,0,7.3,3.8,6.5,7.7S443.3,651.2,443.3,651.2z"/>
	<path class="st6" d="M437,653c0,0,11.1,14.4,9.6,19.2S437,653,437,653z"/>
	<path class="st6" d="M556.1,655.4c0,0-5.5,4.5-5.3,8.3"/>
	<path class="st6" d="M429.1,744.7c0,0,0,4.2,7.9,10.5"/>
	<path class="st6" d="M568,734.7c0,0-0.8,8.8-8.5,13.4"/>
	<g class="st13">
		<path d="M473.6,434.6c0-0.7-0.1-1.4-0.2-2.1c-0.1,1.5-0.1,3.1,0.1,4.6C473.6,436.3,473.6,435.5,473.6,434.6z"/>
		<path d="M472,462.6c0.2-2.9-2.4-5.2-3.1-8c0-0.1-0.1-0.3-0.1-0.4c-0.2,1.1-0.2,2.3,0.1,3.4c0.6,2.3,2.4,4.2,2.9,6.5
			C471.9,463.5,472,463,472,462.6z"/>
		<path d="M542,450.1c-0.9,1.7-2.1,3.2-3.6,4.4c-2.3,2.1-5.2,4.5-8.3,3.8c-4.6-1-6.2-8-10.8-8.5s-7.8,6-12.5,5.9
			c-2,0-3.8-1.4-5.6-2.3c-3.2-1.6-8.5-2.6-12-1.4c-5.2,1.8-7,6.6-10.4,10.5c-1.3,1.4-2.7,2.6-4.4,3.6c-0.3,0.2-0.7,0.3-1.1,0.4
			c-0.5-0.1-0.9-0.4-1.1-0.9v0.1c-0.1,0.7-0.2,1.5-0.2,2.2c0,0.8,0.6,1.4,1.3,1.6c0.4,0,0.8-0.1,1.1-0.4c1.7-0.9,3.1-2.1,4.4-3.6
			c3.4-3.9,5.1-8.7,10.4-10.5c3.5-1.2,8.8-0.2,12,1.4c1.8,0.9,3.6,2.2,5.6,2.3c4.7,0.1,7.8-6.4,12.5-5.9s6.3,7.4,10.8,8.5
			c3.1,0.7,6-1.6,8.3-3.8c1.5-1.2,2.7-2.7,3.6-4.4c0.6-1.4,0.7-3,0.4-4.5C542.3,449.1,542.2,449.6,542,450.1z"/>
	</g>
	<path class="st6" d="M404.8,784.3c0,0,8.2-2.5,11.6,2.3"/>
	<path class="st6" d="M594,785.3c0,0-13.5-0.8-13,2.9"/>
	<ellipse class="st1" cx="864.2" cy="773.3" rx="26.9" ry="4.5"/>
	<ellipse class="st1" cx="91.1" cy="810.7" rx="26.9" ry="4.5"/>
	<ellipse class="st1" cx="195.3" cy="835.1" rx="26.9" ry="4.5"/>
	<ellipse class="st2" cx="805.2" cy="822.1" rx="40.2" ry="6.8"/>
	<path class="st2" d="M821.9,811c1.8-1.5,3.2-3.5,3.8-5.8c0.5-2.3-0.5-5-2.7-5.9c-2.5-0.9-5.1,0.8-7.1,2.5s-4.3,3.7-6.9,3.3
		c2.7-2.5,4-6.2,3.2-9.8c-0.1-0.7-0.4-1.4-0.9-2c-1.4-1.5-3.8-0.8-5.5,0.3c-5.2,3.7-6.7,10.7-6.7,17.1c-0.5-2.3-0.1-4.7-0.1-7
		s-0.7-5-2.6-6.2c-1.2-0.7-2.6-1-4-0.9c-2.3-0.1-4.9,0.2-6.5,1.9c-2,2.1-1.5,5.7,0.3,8s4.3,3.8,6.8,5.4c1.9,1.2,3.6,2.7,4.8,4.6
		c0.1,0.3,0.3,0.5,0.4,0.8h14.6C816.1,815.6,819.1,813.5,821.9,811z"/>
	<path class="st2" d="M196.6,723.3c0,0,5.5,7.2-2.5,18s-14.6,20-12,26.8c0,0,12.1-20.2,22-20.4S207.5,735.4,196.6,723.3z"/>
	<path class="st6" d="M196.6,723.3c0.5,0.7,0.9,1.5,1.1,2.3c9.6,11.3,14.8,21.8,5.5,22.1c-8.6,0.2-18.9,15.7-21.4,19.5
		c0.1,0.3,0.2,0.6,0.3,0.9c0,0,12.1-20.2,22-20.4S207.5,735.4,196.6,723.3z"/>
	<path class="st14" d="M206.9,732.4c0,2.5-0.3,4.6-0.6,4.6s-0.6-2-0.6-4.6s0.4-1.3,0.7-1.3S206.9,729.9,206.9,732.4z"/>
	<path class="st14" d="M210.4,735.5c-2.2,1.2-4.2,1.9-4.3,1.6s1.5-1.5,3.7-2.8s1.4-0.3,1.5,0S212.6,734.2,210.4,735.5z"/>
	<path class="st2" d="M167.6,723.3c0,0-5.5,7.2,2.5,18s14.6,20,12,26.8c0,0-12.1-20.2-22-20.4S156.8,735.4,167.6,723.3z"/>
	<path class="st6" d="M167.6,723.3c-0.5,0.7-0.9,1.5-1.1,2.3c-9.6,11.3-14.7,21.8-5.5,22.1c8.6,0.2,19,15.7,21.4,19.5
		c-0.1,0.3-0.2,0.6-0.3,0.9c0,0-12.1-20.2-22-20.4S156.8,735.4,167.6,723.3z"/>
	<path class="st14" d="M157.4,732.4c0,2.5,0.3,4.6,0.6,4.6s0.6-2,0.6-4.6s-0.4-1.3-0.7-1.3C157.6,731.1,157.4,729.9,157.4,732.4z"/>
	<path class="st14" d="M153.9,735.5c2.2,1.2,4.1,1.9,4.3,1.6s-1.5-1.5-3.7-2.8s-1.3-0.3-1.5,0C152.8,734.7,151.7,734.2,153.9,735.5z
		"/>
	<path class="st15" d="M159.2,767.1c0,0,15.4-0.5,20-3.8s23.6-7.2,24.8-2s23.1,26.3,5.8,26.4s-40.3-2.7-44.9-5.5
		S159.2,767.1,159.2,767.1z"/>
	<path class="st16" d="M210,786c-17.3,0.1-40.3-2.7-44.9-5.5c-3.5-2.2-4.9-9.8-5.4-13.4h-0.5c0,0,1,12.4,5.6,15.2s27.6,5.7,44.9,5.5
		c5,0,6.7-1.8,6.6-4.5C215.6,785,213.7,786,210,786z"/>
</g>
<g id="Layer_2">
	<g class="st0">
		<defs>
			<rect id="SVGID_2_" x="37.8" y="0.3" width="1009.5" height="839.6"/>
		</defs>
		<clipPath id="SVGID_3_" class="st17">
			<use xlink:href="#SVGID_2_"  style="display:none;overflow:visible;"/>
		</clipPath>
		<linearGradient id="SVGID_4_" gradientUnits="userSpaceOnUse" x1="251.1913" y1="285.9025" x2="1062.7629" y2="285.9025">
			<stop  offset="0" style="stop-color:#0066B3"/>
			<stop  offset="0.4309" style="stop-color:#318485"/>
			<stop  offset="0.9966" style="stop-color:#76B043"/>
		</linearGradient>
		<path class="st18" d="M1219.8,468.6c-0.6-1.4-1.8-2.1-2.9-1.9l-16.8-79.4c0.1,0,0.1-0.1,0.2-0.1c1.4-0.9,2-3.1,1.3-4.8
			c-0.5-1.2-1.4-1.9-2.4-2l-5-88c0.2-0.1,0.5-0.2,0.7-0.3c1.4-0.9,2-3.1,1.3-4.8c-0.7-1.8-2.5-2.5-3.9-1.6c-0.4,0.2-0.7,0.6-1,1
			l-43.2-32.2c0.3-0.9,0.3-2.1-0.1-3.1c-0.7-1.8-2.5-2.5-3.9-1.6c-0.3,0.2-0.6,0.4-0.8,0.7l-27.8-25.6c0.5-1,0.5-2.3,0.1-3.4
			c-0.3-0.8-0.9-1.4-1.5-1.7l11.9-58.7c0.5,0.1,1.1,0,1.6-0.4c1.4-0.9,2-3.1,1.3-4.8c-0.6-1.5-1.9-2.2-3.2-1.9l-11.9-42.8
			c0,0,0,0,0,0c1.4-0.9,2-3.1,1.3-4.8c-0.7-1.8-2.5-2.5-3.9-1.6c-0.8,0.5-1.3,1.3-1.5,2.3l-44.8-7.2c0-0.5-0.1-1.1-0.3-1.6
			c-0.7-1.8-2.5-2.5-3.9-1.6c-1.4,0.9-2,3.1-1.3,4.8c0,0.1,0.1,0.1,0.1,0.2L987.3,172l-0.2-0.2l-0.1,0.5l-1.2,1.1l1-0.3l-13.4,65.1
			c-0.5-0.1-1.1,0-1.7,0.4c-1.1,0.7-1.7,2.1-1.6,3.6l-41.6,12.1c0-0.1-0.1-0.2-0.1-0.4c-0.7-1.8-2.5-2.5-3.9-1.6
			c-1.3,0.8-1.9,2.7-1.4,4.4l-115.8-12.3c0-0.5-0.1-1-0.3-1.5c-0.7-1.8-2.5-2.5-3.9-1.6c-1.4,0.9-2,3.1-1.3,4.8
			c0.3,0.7,0.7,1.2,1.2,1.5l-34.5,112c-0.6-0.2-1.3-0.1-2,0.3c-0.6,0.4-1,1-1.3,1.7l-38.7-15.9c0.1-0.8,0-1.6-0.3-2.3
			c-0.7-1.8-2.5-2.5-3.9-1.6c-1,0.6-1.6,1.9-1.6,3.2l-36.8,5.5c-0.1-0.3-0.1-0.5-0.2-0.7c-0.7-1.8-2.5-2.5-3.9-1.6
			c-1.4,0.9-2,3.1-1.3,4.8c0.1,0.1,0.1,0.3,0.2,0.4l-50,55.1c-0.9-0.9-2.1-1.2-3.2-0.5c-1.4,0.9-2,3.1-1.3,4.8
			c0.5,1.1,1.4,1.8,2.3,1.9l1.8,47.7c-0.3,0.1-0.6,0.2-0.9,0.4c-1.3,0.8-1.9,2.7-1.4,4.4l-21.7,10.9c-0.9-0.1-1.8,0.2-2.4,1
			L564,441.9c0.1-0.3,0.3-0.7,0.3-1c0.4-1.9-0.6-3.8-2.2-4.3c-1.1-0.3-2.3,0.3-2.9,1.3l-7.5-4.2l-41.5-23.3c0.3-1.9-0.7-3.8-2.2-4.2
			c-1.5-0.4-3.1,0.8-3.4,2.7c-0.1,0.6-0.1,1.1,0,1.6l-42.9,19.5c-0.4-0.9-1-1.6-1.9-1.8c0,0,0,0,0,0l2.4-32.8l-63.3-7.5
			c0-1.6-0.9-3-2.2-3.4c-0.7-0.2-1.4-0.1-1.9,0.3l-20.5-37.4c0.4-0.5,0.8-1.1,0.9-1.9c0.4-1.9-0.6-3.8-2.2-4.3c-0.7-0.2-1.4,0-2,0.4
			l-35.4-59.4c0.4-0.5,0.7-1.1,0.8-1.8c0.4-1.9-0.6-3.8-2.2-4.3c-1.5-0.4-3.1,0.8-3.4,2.7c-0.1,0.8-0.1,1.5,0.2,2.2l-33.9,24.6
			c-0.4-0.6-1-1.1-1.6-1.3c-1.4-0.4-2.7,0.5-3.2,2l-89.8-34.1l-0.1,0.4c0.2-1.2-0.1-2.4-0.7-3.3l23.3-35.7c0.3,0.2,0.6,0.4,0.9,0.4
			c1.5,0.4,3.1-0.8,3.4-2.7c0.4-1.9-0.6-3.8-2.2-4.3c-0.9-0.3-1.8,0.1-2.5,0.8l-58.8-67.4c0.2-0.3,0.3-0.7,0.4-1.2
			c0.3-1.4-0.2-2.8-1.1-3.7l17.2-36.3c0.1,0.1,0.2,0.1,0.3,0.1c1.5,0.4,3.1-0.8,3.4-2.7c0.4-1.9-0.6-3.8-2.2-4.3
			c-0.8-0.2-1.6,0-2.3,0.6l-68.9-83.4c0.2-0.4,0.4-0.8,0.5-1.3c0.4-1.9-0.6-3.8-2.2-4.3c-1.5-0.4-3.1,0.8-3.4,2.7
			c-0.3,1.5,0.3,3,1.3,3.8l-27.7,74.2c-0.1,0-0.2-0.1-0.2-0.1c-1.5-0.4-3.1,0.8-3.4,2.7c-0.2,1.3,0.1,2.6,0.8,3.4l-41.1,71.4
			c-0.2-0.1-0.5-0.3-0.7-0.3c-1.5-0.4-3.1,0.8-3.4,2.7c-0.3,1.9,0.6,3.8,2.2,4.3c0.4,0.1,0.8,0.1,1.2,0l16.7,59
			c-0.7,0.5-1.3,1.3-1.5,2.4c-0.3,1.9,0.6,3.8,2.2,4.3c0.3,0.1,0.6,0.1,1,0.1l8.2,41.7c-0.9,0.4-1.5,1.3-1.8,2.5
			c-0.2,0.9,0,1.8,0.3,2.5l-39,35.5c-0.4-0.5-0.9-0.9-1.4-1c-1.5-0.4-3.1,0.8-3.4,2.7c-0.3,1.6,0.3,3.2,1.5,4L6.4,384.6c0,0,0,0,0,0
			c-1.5-0.4-3.1,0.8-3.4,2.7c-0.3,1.9,0.6,3.8,2.2,4.3c0.8,0.2,1.7,0,2.3-0.6L38,432.1c-0.3,0.4-0.5,0.9-0.6,1.5
			c-0.4,1.9,0.6,3.8,2.2,4.3c1.5,0.4,3.1-0.8,3.4-2.7c0-0.1,0-0.1,0-0.2l91.1,3.6l0.1,0.3l0.4-0.3l1.5,0.1l-0.9-0.6l43.5-39.2
			c0.4,0.5,0.9,0.9,1.5,1c1.2,0.3,2.4-0.3,3-1.5l38.1,23.8c0,0.1-0.1,0.3-0.1,0.4c-0.3,1.9,0.6,3.8,2.2,4.3c1.4,0.4,2.8-0.6,3.3-2.2
			l82.3,101.5c-0.2,0.4-0.4,0.9-0.5,1.4c-0.4,1.9,0.6,3.8,2.2,4.3c1.5,0.4,3.1-0.8,3.4-2.7c0.1-0.7,0.1-1.5-0.1-2.1l83.6-58.3
			c0.4,0.7,1,1.2,1.7,1.4c0.6,0.2,1.3,0.1,1.8-0.2l21.5,42.9c-0.5,0.5-0.8,1.2-1,2c-0.4,1.9,0.6,3.8,2.2,4.3
			c1.1,0.3,2.2-0.2,2.8-1.2l31,25c-0.1,0.2-0.2,0.5-0.2,0.7c-0.4,1.9,0.6,3.8,2.2,4.3c1.5,0.4,3.1-0.8,3.4-2.7c0-0.1,0-0.3,0.1-0.4
			l66.4-2.5c0.2,1.4,1,2.6,2.2,2.9c1.5,0.4,3.1-0.8,3.4-2.7c0.2-1.3-0.1-2.5-0.8-3.3l23-37.9c0.3,0.2,0.6,0.4,0.9,0.5
			c1.4,0.4,2.8-0.6,3.3-2.3l38,15.2c0,0.1,0,0.1-0.1,0.2c-0.3,1.9,0.6,3.8,2.2,4.3c1,0.3,2-0.1,2.7-1c0.5-0.6,0.9-1.4,0.9-2.3
			l48.8-1.8c0,0.4,0.1,0.7,0.3,1.1c0.7,1.8,2.5,2.5,3.9,1.6c1-0.7,1.6-2,1.6-3.4l7.9-2.7l44.1-15.2c0.7,1.7,2.4,2.4,3.8,1.5
			c1.4-0.9,2-3.1,1.3-4.8c-0.2-0.5-0.5-0.9-0.9-1.3l23.1-49.5c0.7,0.4,1.6,0.4,2.4-0.1c0,0,0,0,0,0l15,27.3l52.8-44.9
			c0.9,1.2,2.3,1.6,3.5,0.8c0.6-0.4,1.1-1,1.3-1.8l35.1,12.5c-0.1,0.7,0,1.5,0.3,2.2c0.7,1.8,2.5,2.5,3.9,1.6
			c0.7-0.4,1.1-1.1,1.4-1.9l57.9,17.5c-0.1,0.7,0,1.4,0.3,2c0.7,1.8,2.5,2.5,3.9,1.6c1.4-0.9,2-3.1,1.3-4.8
			c-0.3-0.7-0.7-1.2-1.2-1.6l13.5-46.2c0.6,0.2,1.3,0.1,1.9-0.3c1.2-0.8,1.8-2.5,1.5-4.2l86.9-45.6l-0.1-0.4
			c0.5,1.1,1.3,1.8,2.2,1.9l0.4,46.3c-0.3,0.1-0.6,0.2-0.9,0.4c-1.4,0.9-2,3.1-1.3,4.8c0.7,1.8,2.5,2.5,3.9,1.6
			c0.8-0.5,1.4-1.5,1.5-2.6l80.1,4.9c0,0.4,0.1,0.8,0.3,1.2c0.5,1.3,1.6,2,2.7,2l5.4,41.8c-0.1,0.1-0.2,0.1-0.3,0.2
			c-1.4,0.9-2,3.1-1.3,4.8c0.7,1.8,2.5,2.5,3.9,1.6c0.8-0.5,1.3-1.3,1.5-2.3l96.1,9.2c0,0.5,0.1,1,0.3,1.4c0.7,1.8,2.5,2.5,3.9,1.6
			C1220,472.6,1220.5,470.4,1219.8,468.6z M1192.4,292.1c0.3,0.1,0.6,0.2,0.9,0.2l5,88c-0.2,0.1-0.5,0.2-0.7,0.3
			c-0.4,0.3-0.7,0.6-1,1l-33.3-24.1L1192.4,292.1z M1110.4,224.8c0.2,0.5,0.5,0.9,0.8,1.2l-14,31l11.3-38.1l2.1,2.3
			C1110,222.2,1109.9,223.6,1110.4,224.8z M1120.2,295.9c-0.1,0.1-0.3,0.2-0.4,0.3l-22.4-31.7c0.5-0.7,0.7-1.5,0.7-2.4l18.4-3.4
			l4.1,36.9C1120.5,295.8,1120.4,295.8,1120.2,295.9z M1122.7,302.4l16.8,31.4l-19.2-31.5C1121,302.8,1121.9,302.9,1122.7,302.4z
			 M1118.7,299.8l-16.8-27.6l17.4,24.6C1118.8,297.7,1118.5,298.8,1118.7,299.8z M1098.1,261.3c-0.1-0.2-0.1-0.4-0.2-0.6
			c-0.2-0.5-0.5-0.9-0.8-1.2l14.9-32.9c0.3,0.2,0.7,0.3,1.1,0.3l3.5,31.1L1098.1,261.3z M1095.9,258.7c-0.5-0.2-1.1-0.1-1.6,0.1
			l-42-100l0.1-0.3c0.1-0.1,0.1-0.1,0.2-0.2l55.4,59.9L1095.9,258.7z M1093.6,259.3c-0.2,0.2-0.4,0.4-0.6,0.6l-51.4-40.4l8.8-60.3
			c0.4,0,0.8,0,1.1-0.2L1093.6,259.3z M1037,267.1c0.3-0.5,0.5-1.1,0.5-1.8l55-2.5c0,0.4,0.1,0.7,0.3,1c0,0.1,0.1,0.1,0.1,0.2
			l-31.7,31.2L1037,267.1z M1081,319.8c-0.2,0.3-0.3,0.7-0.4,1.1l-35.7-6.3c0-0.6-0.1-1.1-0.3-1.7c0-0.1-0.1-0.1-0.1-0.2l16.6-16.3
			L1081,319.8z M975.8,240.7l48.2-30.6c0.3,0.6,0.8,1,1.3,1.3l-9.7,46.1l-39.6-15C976,241.9,976,241.3,975.8,240.7z M1026,211.7
			c0.2,0,0.3,0,0.5,0l7.2,49.9c-0.1,0.1-0.3,0.1-0.4,0.2c-0.7,0.4-1.1,1.1-1.4,1.9l-15.6-5.9L1026,211.7z M1027.3,211.5
			c0.1-0.1,0.3-0.1,0.4-0.2c0.4-0.2,0.7-0.5,0.9-0.9l12.2,9.6l-6,41.4c-0.1,0-0.2,0-0.3,0L1027.3,211.5z M1041.5,220.5l51.2,40.2
			c-0.1,0.4-0.2,0.8-0.3,1.2l-55,2.5c0-0.4-0.1-0.7-0.3-1c-0.4-0.9-1-1.5-1.7-1.8L1041.5,220.5z M1040.9,219l-11.9-9.4
			c0.4-1,0.4-2.1,0-3.1c-0.2-0.5-0.5-0.9-0.8-1.2l6-12.9l15.4-33.4c0.1,0,0.1,0.1,0.2,0.1L1040.9,219z M1027.5,204.8
			c-0.8-0.4-1.6-0.4-2.4,0.1c-1.2,0.8-1.8,2.4-1.5,4l-10.6-10.8l35.7-39.8c0,0,0.1,0.1,0.1,0.1L1027.5,204.8z M1023.2,209.6
			l-47.7,30.3l37-41.2L1023.2,209.6z M975.7,243.4l39.7,15l-11.5,54.5c-0.4-0.1-0.9,0-1.3,0.2l-27.8-68.2
			C975.2,244.5,975.5,244,975.7,243.4z M1016.1,258.7l15.7,5.9c-0.1,0.7,0,1.4,0.3,2c0.1,0.4,0.3,0.7,0.6,0.9l-27.7,45.8
			c-0.1-0.1-0.2-0.1-0.3-0.2L1016.1,258.7z M1033.3,268.2c0.1,0.1,0.3,0.2,0.5,0.2l-6.2,46.6l-21.2,0.8c0-0.4-0.1-0.7-0.3-1.1
			c-0.1-0.4-0.3-0.7-0.5-0.9L1033.3,268.2z M1028.2,316l11-0.4c0.1,0.2,0.1,0.4,0.2,0.7c0.2,0.5,0.5,0.9,0.8,1.2l-16.2,32.5
			c-0.1-0.1-0.2-0.1-0.3-0.2L1028.2,316z M1039.1,314.6l-10.8,0.4l6.2-46.4c0.2,0,0.4,0,0.6,0l5.9,42.6c-0.1,0-0.2,0.1-0.3,0.2
			C1039.7,312,1039.1,313.3,1039.1,314.6z M1035.8,268.3c0,0,0.1,0,0.1-0.1c0.2-0.1,0.4-0.3,0.5-0.4l24,28.1L1044,312
			c-0.6-0.7-1.5-1.1-2.3-1L1035.8,268.3z M1044.8,315.5l35.7,6.3c0,0.6,0.1,1.1,0.3,1.7c0.1,0.3,0.2,0.5,0.4,0.7l-16.3,22.8
			l-20.8-30.1C1044.4,316.5,1044.7,316,1044.8,315.5z M1061.6,295.9l31.7-31.1c0.3,0.3,0.6,0.6,1,0.8l-10.6,52.7
			c-0.5-0.1-1.1,0-1.6,0.4c-0.2,0.1-0.4,0.3-0.5,0.4L1061.6,295.9z M1095,265.8c0.5,0.1,1.1,0,1.6-0.4c0,0,0.1-0.1,0.1-0.1
			l47.6,77.9c-0.3,0.3-0.5,0.7-0.6,1.1l-57.5-21.8c0.1-0.7,0-1.5-0.3-2.2c-0.3-0.8-0.9-1.4-1.5-1.7L1095,265.8z M1086,323.3
			l57.5,21.8c-0.1,0.8-0.1,1.6,0.3,2.3c0.2,0.4,0.4,0.7,0.6,1l-12.8,22.6l-45.8-47.3C1085.8,323.6,1085.9,323.5,1086,323.3z
			 M1151.6,388.8c-0.1-0.3-0.1-0.6-0.2-0.8c-0.2-0.5-0.5-0.9-0.9-1.3l12.5-28.2l33.3,24c-0.1,0.4-0.2,0.8-0.2,1.2L1151.6,388.8z
			 M1194.2,384.9l-81.2,25.1l33.4-18.6c0.8,1.6,2.4,2.2,3.8,1.3c1-0.6,1.5-1.8,1.6-3.1L1194.2,384.9z M1149.8,386.2
			c-0.3-0.1-0.6-0.2-0.9-0.2l-2-36.6c0.2-0.1,0.4-0.2,0.7-0.3c0.4-0.3,0.7-0.6,1-1l13.8,10L1149.8,386.2z M1148.2,386
			c-0.3,0.1-0.5,0.2-0.7,0.3c-0.2,0.2-0.5,0.4-0.7,0.6l-14.7-15.2l12.8-22.6c0.4,0.3,0.8,0.4,1.2,0.4L1148.2,386z M1131.7,372.5
			l14.7,15.2c-0.4,0.9-0.6,1.9-0.3,2.9l-34.6,19.3c-0.1-0.3-0.3-0.6-0.5-0.8L1131.7,372.5z M1111.8,411.3l84.5-26.1
			c0,0.1,0.1,0.2,0.1,0.3c0,0,0,0.1,0,0.1l-50,45.8l-34.8-18.8C1111.8,412.2,1111.8,411.8,1111.8,411.3z M1191.7,291.6
			C1191.7,291.6,1191.7,291.7,1191.7,291.6l-29,65.6l-13.8-9.9c0.3-0.9,0.3-2-0.1-3c-0.1-0.2-0.2-0.4-0.3-0.5L1191.7,291.6z
			 M1191.2,290.9l-43.1,52.2c-0.4-0.4-0.9-0.7-1.5-0.8l-0.5-46.3l44.6-6.4c0.1,0.3,0.1,0.5,0.2,0.8
			C1191,290.6,1191.1,290.8,1191.2,290.9z M1146.6,256.2c0.4-0.2,0.7-0.6,1-1l43.2,32.2c-0.2,0.4-0.2,0.9-0.2,1.4l-44.5,6.4
			l-0.4-38.6C1146,256.5,1146.4,256.4,1146.6,256.2z M1145.8,342.3c-0.3,0-0.5,0.1-0.8,0.3l-21.7-40.7c0.7-0.7,1.1-1.7,1.1-2.8l21-3
			L1145.8,342.3z M1144.1,256.2c0.3,0.2,0.6,0.3,0.9,0.3l0.4,38.7l-21.1,3c-0.1-0.3-0.1-0.5-0.2-0.8c-0.2-0.4-0.4-0.8-0.7-1.1
			L1144.1,256.2z M1143.5,255.7l-20.7,40.2c-0.4-0.2-0.9-0.4-1.3-0.3l-4.1-36.9l25.3-4.7c0.1,0.2,0.1,0.4,0.2,0.6
			C1142.9,255.1,1143.2,255.4,1143.5,255.7z M1114.3,226.3c0.3-0.2,0.6-0.4,0.8-0.7l27.8,25.6c-0.2,0.5-0.4,1.2-0.4,1.8l-25.3,4.7
			l-3.5-31.1C1113.9,226.5,1114.1,226.5,1114.3,226.3z M1113.3,219.6c-0.5-0.1-1.1,0-1.6,0.4c-0.2,0.1-0.4,0.3-0.6,0.5l-2.3-2.5
			l15.4-52.1L1113.3,219.6z M1108.2,217.3l-55.2-59.7c0.2-0.4,0.4-0.9,0.4-1.4l69.9,1.8c0,0.4,0.1,0.8,0.3,1.2
			c0.3,0.7,0.7,1.2,1.2,1.6L1108.2,217.3z M1053.2,154.2l36.9-28.4l33.5,30.1c-0.2,0.4-0.3,0.8-0.3,1.2l-69.9-1.8
			C1053.4,154.9,1053.4,154.5,1053.2,154.2z M1113,111.6l11.9,42.8c0,0,0,0,0,0c-0.3,0.2-0.6,0.5-0.8,0.7l-33.3-29.9l19.4-14.9
			C1110.9,111.4,1112,111.8,1113,111.6z M1064.8,100.9l44.8,7.2c0,0.5,0.1,1,0.3,1.5l-19.6,15.1l-25.6-23
			C1064.7,101.4,1064.7,101.1,1064.8,100.9z M1063.3,103.1c0.3-0.2,0.6-0.5,0.8-0.7l25.4,22.8l-36.2,27.9l8.5-49.5
			C1062.3,103.6,1062.8,103.5,1063.3,103.1z M1060,102.5c0.3,0.4,0.7,0.7,1.1,0.8l-8.5,49.6c-0.9-1-2.1-1.2-3.2-0.5
			c-1.1,0.7-1.7,2.1-1.6,3.5l-58.9,15.8L1060,102.5z M1047.9,156.8c0,0.1,0.1,0.3,0.1,0.4c0.1,0.1,0.1,0.3,0.2,0.4l-35.8,39.9
			l-24.2-24.7L1047.9,156.8z M987.6,173.4l24.3,24.7L975,239.2c-0.2-0.3-0.5-0.5-0.8-0.6L987.6,173.4z M972.1,245.3
			c0.6,0.3,1.3,0.3,1.9,0l27.8,68.2c-0.2,0.2-0.4,0.4-0.6,0.7l-43.4-34L972.1,245.3z M1000.6,316.9l-35.4,11.3l-10.4,3.3l-18.7,6
			c0,0,0,0,0,0c-0.3-0.6-0.6-1.1-1.1-1.5l22.5-55l43.4,34C1000.7,315.6,1000.6,316.2,1000.6,316.9z M928.8,255.3l41.6-12.1
			c0,0.1,0.1,0.2,0.1,0.4c0.2,0.6,0.6,1,0.9,1.3l-14.2,34.8l-28.7-22.5C928.7,256.6,928.8,256,928.8,255.3z M927.2,258.9
			c0.4-0.2,0.7-0.5,0.9-0.9l28.8,22.5l-22.6,55.2c-0.3-0.1-0.5-0.1-0.8-0.1l-1.3-14l-5.6-62.4C926.8,259.1,927,259,927.2,258.9z
			 M925.8,259.3l5.6,61.8l1.3,14.6c-0.2,0.1-0.4,0.2-0.5,0.3c-0.5,0.3-0.9,0.8-1.2,1.3l-23.7-11.1l17.9-66.9
			C925.5,259.2,925.7,259.3,925.8,259.3z M826,309c0.1,0,0.3,0,0.4,0l6.9,34.9l4.8,24.1c-0.1,0-0.2,0.1-0.3,0.1
			c-0.8,0.5-1.3,1.4-1.5,2.4l-18.1-2L826,309z M817.5,368.4l-46.7-5.2c0-0.5-0.1-1-0.3-1.5c0-0.1-0.1-0.2-0.1-0.2l53.7-53.4
			c0.3,0.4,0.7,0.7,1.2,0.9L817.5,368.4z M833.9,343.2l-6.8-34.4c0.1,0,0.2-0.1,0.3-0.1c0.4-0.2,0.7-0.6,0.9-0.9l37.8,29l-25.3,31.7
			c-0.6-0.6-1.3-0.8-2.1-0.7L833.9,343.2z M880.7,315.4c0,0.5,0.1,1.1,0.3,1.6c0.1,0.2,0.2,0.4,0.3,0.6l-14.7,18.4l-38-29.1
			c0.1-0.2,0.1-0.3,0.1-0.5L880.7,315.4z M828.9,304.6l27-13.4l25.2,22.5c-0.1,0.3-0.2,0.5-0.3,0.8l-51.9-9
			C829,305.2,828.9,304.9,828.9,304.6z M881.9,318.3c0.7,0.6,1.6,0.9,2.4,0.6l12.2,38.8c-0.2,0.3-0.3,0.6-0.4,1l-28.8-22.1
			L881.9,318.3z M866.8,337.2l29.2,22.4c0,0.2,0,0.5,0,0.7l-54.2,10c-0.1-0.2-0.1-0.4-0.2-0.6c-0.1-0.2-0.2-0.4-0.3-0.6L866.8,337.2
			z M842,371.2l36-6.6l18.3-3.4c0,0,0,0.1,0,0.1c0.1,0.3,0.3,0.6,0.5,0.9l-26.6,42.6l-28.8-31.5C841.8,372.7,842,371.9,842,371.2z
			 M885,318.5c0.5-0.3,0.9-0.8,1.1-1.4l20.3,9.6l-7.9,29.5c-0.3,0-0.7,0.2-1,0.4c-0.2,0.1-0.3,0.2-0.5,0.4L885,318.5z M907.2,327
			l23.6,11.1c-0.1,0.6-0.2,1.2,0,1.9l-29.4,17.8c-0.5-0.9-1.2-1.5-2-1.6L907.2,327z M901.6,358.7l29.4-17.8c0.4,0.8,0.9,1.4,1.6,1.7
			l-8,50.4l-23.4-31C901.7,361.1,901.9,359.8,901.6,358.7z M924.3,258.7c0.1,0.1,0.2,0.2,0.4,0.3l-17.9,66.9l-20.3-9.6
			c0.2-0.8,0.1-1.7-0.2-2.5c-0.1-0.2-0.2-0.5-0.4-0.7L924.3,258.7z M923.5,257.7c0.1,0.1,0.1,0.2,0.2,0.3l-38.5,54.4
			c-0.8-0.7-2-0.9-3-0.3c-0.3,0.2-0.6,0.5-0.8,0.8l-24.8-22.2L923.5,257.7z M807.3,245.4l114.4,12.2L856,290.1l-49-43.8
			C807.2,246,807.3,245.7,807.3,245.4z M806.6,247.1l48.6,43.4l-26.6,13.2c-0.7-1.5-2.1-2.2-3.3-1.7L806,247.7
			C806.2,247.5,806.4,247.3,806.6,247.1z M803.8,248.1c0.5,0.1,1,0.1,1.5,0l19.3,54.3c-1.3,1-1.8,3-1.1,4.7c0,0.1,0.1,0.2,0.1,0.2
			l-53.7,53.4c-0.2-0.2-0.4-0.4-0.6-0.6L803.8,248.1z M765.4,364.9c0.2,0.6,0.6,1.1,1,1.4l-7.3,19.3L727.1,364
			c0.1-0.3,0.1-0.5,0.2-0.8l37.9,0.5C765.1,364.1,765.2,364.5,765.4,364.9z M725.2,348.3c0.6-0.4,1-1,1.3-1.6l38.7,15.9
			c0,0.1,0,0.1,0,0.2l-37.9-0.5c0-0.4-0.1-0.8-0.3-1.2c-0.5-1.1-1.4-1.8-2.3-1.9l-0.3-10.5C724.6,348.6,724.9,348.5,725.2,348.3z
			 M722.1,348c0.4,0.4,0.9,0.7,1.5,0.7l0.3,10.5c-0.3,0.1-0.6,0.2-0.8,0.3c-0.7,0.4-1.2,1.2-1.4,2l-8.6-2.2L722.1,348z M721.8,364.4
			c0,0.1,0.1,0.1,0.1,0.2l-56.1,54.2l46.6-58.7l9,2.4C721.5,363.1,721.6,363.8,721.8,364.4z M684.3,402.1l38-36.8
			c0.4,0.5,0.9,0.8,1.4,0.9l-5.4,67.2l-53.8-9.8c0-0.6-0.1-1.1-0.3-1.7c0-0.1-0.1-0.1-0.1-0.2L684.3,402.1z M684.3,351.5l36.8-5.5
			c0.1,0.3,0.1,0.5,0.2,0.7c0.1,0.2,0.2,0.4,0.3,0.6l-9.3,11.8l-28-7.3C684.3,351.7,684.3,351.6,684.3,351.5z M680.8,355
			c0.6,0.2,1.3,0.1,1.9-0.3c0.7-0.4,1.2-1.2,1.4-2l27.5,7.2l-48.3,60.8c-0.1-0.1-0.3-0.3-0.5-0.4L680.8,355z M662.1,420
			c-0.6-0.2-1.3-0.1-1.9,0.3c-0.6,0.4-1.1,1-1.3,1.8l-7.8-2.8l28.6-63.2L662.1,420z M631.7,464.5c0-0.1-0.1-0.2-0.2-0.3l28.4-37.8
			c0.3,0.3,0.7,0.5,1.1,0.6l-2.7,48.4l-26.3-8.5C632.1,466.1,632,465.3,631.7,464.5z M659,425.1c0.1,0.2,0.2,0.5,0.3,0.7l-28.2,37.6
			l19.6-43.3l8,2.8C658.6,423.7,658.7,424.4,659,425.1z M679.5,354.2c0.1,0.1,0.1,0.1,0.2,0.2L650.4,419l-20.3-7.2
			c0.1-0.7,0-1.5-0.3-2.2c-0.1-0.1-0.1-0.3-0.2-0.4L679.5,354.2z M627.7,414.9c0.3-0.1,0.5-0.2,0.8-0.3c0.6-0.4,1.1-1,1.3-1.8
			l20.2,7.1L630.4,463c-0.3-0.2-0.6-0.3-1-0.4L627.7,414.9z M626.5,467.8C626.5,467.8,626.5,467.8,626.5,467.8
			c0.2,0.4,0.4,0.8,0.6,1.1l-15.1,27.6l-8.3-3l0.6-8c1.3-0.1,2.4-1.2,2.7-2.8c0.3-1.6-0.3-3.1-1.4-3.9l20.9-10.5L626.5,467.8z
			 M603.1,493.1l-13.7-5c0-0.2,0-0.3,0-0.5l12.2-4.3c0.3,1,1.1,1.8,2,2.1L603.1,493.1z M601.5,481c-0.1,0.4-0.1,0.9,0,1.3l-9.8,3.5
			l9.8-5C601.5,480.9,601.5,481,601.5,481z M588.7,489.9c0.2-0.3,0.4-0.6,0.5-0.9l13.8,5.1l-1.4,17.7c-0.3,0.1-0.6,0.2-0.8,0.3
			l-8.2-14.9L588.7,489.9z M602.4,511.8l1.3-17.4l7.9,2.9l-8.2,14.9C603.1,511.9,602.8,511.8,602.4,511.8z M563.6,442.6l38.1,37.2
			l-12.4,6.3c0-0.1,0-0.1-0.1-0.2c-0.7-1.6-2.2-2.3-3.5-1.8l-22.2-41.3C563.5,442.7,563.5,442.7,563.6,442.6z M510.1,411.3l11.5,6.5
			l37.4,21c-0.1,0.2-0.1,0.4-0.1,0.5c-0.2,1.2,0.1,2.3,0.7,3.2l-18.4,23.9l-31.3-54.4C509.9,411.7,510,411.5,510.1,411.3z
			 M509.2,412.6l31.4,54.5l-26.9,35c-0.3-0.3-0.7-0.5-1.1-0.6c-0.1,0-0.3-0.1-0.4-0.1l-3.7-88.3C508.7,412.9,509,412.8,509.2,412.6z
			 M483.6,503.2l-47.9-2.1c0-0.7-0.2-1.3-0.6-1.8l38.5-47.1l36.2,50.3c-0.3,0.4-0.5,0.9-0.6,1.5c0,0.1,0,0.1,0,0.2L483.6,503.2z
			 M506.2,505.1l-65.7,7.8l-5.7-9c0.4-0.5,0.6-1,0.7-1.7c0-0.1,0-0.1,0-0.2L506.2,505.1z M511.3,508.4c0.7,0.2,1.4,0.1,1.9-0.3
			l4.6,8.3l-54.2,25.6l46.1-34.9C510.1,507.8,510.6,508.2,511.3,508.4z M513.8,507.6c0.4-0.5,0.7-1.1,0.9-1.9c0-0.3,0.1-0.5,0.1-0.8
			l40.8-6.4l-37.1,17.5L513.8,507.6z M505.9,412.7c0.3,0.2,0.6,0.4,0.9,0.5c0.3,0.1,0.6,0.1,0.9,0.1l3.7,88.1
			c-0.4,0.1-0.8,0.3-1.1,0.6l-36.2-50.4L505.9,412.7z M462.1,432.6c0.1-0.6,0.1-1.1,0-1.6l42.9-19.5c0.1,0.2,0.2,0.5,0.4,0.7
			l-31.7,38.9l-12.1-16.9C461.7,433.6,461.9,433.1,462.1,432.6z M460.9,434.7l12.2,16.9l-38.5,47.1c-0.1-0.1-0.1-0.1-0.2-0.2
			l8.3-21.9l15.7-41.4c0.1,0,0.2,0.1,0.3,0.1C459.5,435.5,460.3,435.3,460.9,434.7z M402.5,465.4l15.4-9l13.5,42
			c-0.2,0.1-0.4,0.3-0.5,0.5l-28.7-30.4c0.2-0.3,0.3-0.7,0.4-1.1C402.7,466.6,402.6,466,402.5,465.4z M418.6,456l38.2-22.4
			c0.2,0.5,0.5,0.8,0.9,1.1l-15.8,41.7l-8.2,21.7c-0.1,0-0.2-0.1-0.2-0.1c-0.5-0.1-0.9-0.1-1.4,0L418.6,456z M398.9,388.8l62.6,7.5
			l-2.3,31.9c-0.9,0-1.6,0.6-2.2,1.4l-58.2-40.3C398.8,389.1,398.9,389,398.9,388.8z M398.4,390.1l58.2,40.3
			c-0.1,0.2-0.1,0.4-0.2,0.6c-0.1,0.6-0.1,1.2,0.1,1.8l-38.2,22.3L397.6,391C398,390.8,398.2,390.5,398.4,390.1z M371.5,348.1
			c0.1,0,0.2,0.1,0.3,0.1c0.7,0.2,1.4,0.1,1.9-0.3l20.5,37.4c-0.4,0.5-0.8,1.1-0.9,1.9c-0.1,0.5-0.1,0.9,0,1.4L352,402.4
			c-0.2-0.7-0.6-1.2-1.1-1.6L371.5,348.1z M295.5,367.5l-20.9,16.1l-12.4-27.2c0.4-0.3,0.8-0.8,1-1.4l31.6,9.7
			C294.7,365.7,295,366.7,295.5,367.5z M296.1,368.1c0.3,0.2,0.6,0.4,0.9,0.5c0.2,0.1,0.4,0.1,0.6,0.1l-10.4,39
			c-0.5-0.1-1.1-0.1-1.6,0.2L275,384.4L296.1,368.1z M300.6,364.8l42.1-11.5l5.9,47c-0.6,0.2-1.1,0.6-1.4,1.2l-31-23.6l-15.7-11.9
			c0,0,0-0.1,0-0.1C300.6,365.6,300.6,365.2,300.6,364.8z M346.8,402.4c-0.1,0.2-0.1,0.4-0.2,0.7c0,0.2-0.1,0.4-0.1,0.7l-35.7,4.2
			l-10.9-40.4c0.1-0.2,0.2-0.4,0.3-0.6L346.8,402.4z M310,408l-20.5,2.4c-0.2-1-0.8-1.9-1.5-2.4l10.5-39.4c0.3-0.1,0.6-0.3,0.8-0.5
			L310,408z M288.4,414.1l35.1,48.1c-0.2,0.2-0.3,0.5-0.4,0.8l-27.5-11.2l-7.8-37.2C288.1,414.4,288.3,414.3,288.4,414.1z
			 M289,413.5c0.3-0.4,0.5-0.9,0.6-1.5c0-0.2,0.1-0.5,0.1-0.7l20.6-2.4l14.2,52.5c-0.1,0.1-0.3,0.2-0.4,0.3L289,413.5z M311,408.8
			l35.5-4.2c0.2,0.9,0.6,1.7,1.2,2.2l-8.8,22.6l-12.4,31.7c-0.1,0-0.2-0.1-0.3-0.1c-0.4-0.1-0.8-0.1-1.2,0L311,408.8z M339.8,429.4
			l8.6-22.2c0.1,0,0.2,0.1,0.3,0.1c0.9,0.2,1.7,0,2.4-0.7l12.8,15.9l-36.3,39.3c-0.1-0.1-0.2-0.2-0.3-0.3L339.8,429.4z M351.6,406
			c0.2-0.4,0.4-0.9,0.5-1.4c0.1-0.4,0.1-0.9,0-1.3l41.3-13.8c0.1,0.2,0.2,0.5,0.3,0.7l-29.3,31.8L351.6,406z M370.9,347.7
			l-20.6,52.7c-0.1,0-0.2-0.1-0.3-0.1c-0.2-0.1-0.5-0.1-0.7-0.1l-5.9-47.1l26.4-7.2C369.9,346.7,370.3,347.3,370.9,347.7z
			 M335.1,282.8l35.4,59.4c-0.4,0.5-0.7,1.1-0.8,1.8c-0.1,0.4-0.1,0.7-0.1,1.1l-26.3,7.2l-8.7-69.1
			C334.7,283,334.9,282.9,335.1,282.8z M333.1,283.2c0.2,0.1,0.5,0.1,0.7,0.1l8.7,69.2l-42.1,11.5c-0.2-0.7-0.6-1.3-1-1.7l33.3-79.2
			C332.8,283.1,332.9,283.1,333.1,283.2z M331.7,282.2c0.1,0.1,0.2,0.2,0.3,0.3l-33.4,79.2c-0.1-0.1-0.2-0.1-0.4-0.1
			c-0.1,0-0.3-0.1-0.4-0.1l-2.1-43L331.7,282.2z M297.6,308.6c0.1-0.8,0.1-1.5-0.2-2.2l32.3-23.4l-34,34.4l-0.3-6.1
			C296.5,311.1,297.4,310.1,297.6,308.6z M297.2,361.6c-0.9,0.2-1.7,1-2.1,2.1l-31.6-9.7c0.1-0.9,0-1.8-0.4-2.6l31.9-32.2
			L297.2,361.6z M293.2,310.8c0.3,0.3,0.7,0.5,1,0.6c0.1,0,0.3,0.1,0.4,0.1l0.3,6.7l-30.4,30.7L293.2,310.8z M202.2,273.1l89.8,34.1
			c-0.1,1.1,0.1,2.1,0.6,2.9l-30.3,40.3c-0.3-0.3-0.7-0.5-1-0.6c-0.9-0.3-1.8,0.1-2.5,0.7l-57.2-76.3
			C201.9,273.9,202.1,273.6,202.2,273.1z M258.3,351.3c-0.1,0.1-0.1,0.3-0.2,0.4l-43.9-26l-15.9-9.4c0-0.1,0.1-0.2,0.1-0.3
			c0.3-1.9-0.6-3.8-2.1-4.3l3.1-36.2c0.6,0.1,1.2-0.2,1.7-0.6L258.3,351.3z M258,354.6l-45.3,24.2l-15.8-60.5
			c0.5-0.3,0.9-0.7,1.2-1.3l32.9,19.5l9.7,5.7l17.4,10.3c0,0,0,0,0,0C257.8,353.3,257.8,354,258,354.6z M127.8,398.2l-47.6,2.1
			c0-0.1,0-0.1,0-0.2l40-18.5c0.4,0.9,1.1,1.6,1.9,1.8c1.3,0.4,2.6-0.4,3.2-1.9L127.8,398.2z M126,381.3l52,14.7l-49.3,2.1
			L126,381.3z M167.3,288.2l8.5,8.3l-28.4,30.6c-0.1-0.2-0.3-0.3-0.5-0.4l17.3-37.3c0.1,0,0.2,0.1,0.3,0.1
			C165.6,289.8,166.7,289.3,167.3,288.2z M164.9,242.8l58.8-11.1c0.1,0.3,0.1,0.5,0.2,0.7l-56.7,51.2c-0.4-0.5-0.9-0.9-1.5-1
			c-0.1,0-0.2-0.1-0.3-0.1L164.9,242.8z M167.9,285.2l29-11.9c0,0.1,0.1,0.2,0.1,0.4l-20.7,22.2l-8.7-8.4c0.1-0.2,0.1-0.4,0.2-0.7
			C168,286.3,168,285.7,167.9,285.2z M96.4,231c-0.9,0-1.7,0.5-2.2,1.3l-17.6-14.4l23.2-35.7c0.2,0.2,0.5,0.3,0.7,0.4L96.4,231z
			 M100.3,193.7L99,233.1c-0.3-0.9-1-1.7-1.8-2L100.3,193.7z M95.7,238.1c0.2,0,0.3,0.1,0.5,0.1l1,42c-0.7,0.1-1.3,0.6-1.8,1.3
			l-15.8-12l15.7-31.6C95.4,238,95.5,238,95.7,238.1z M96.9,238.1c0.8-0.2,1.5-0.9,1.9-1.8l-1.2,34.5L96.9,238.1z M101.4,182.7
			c0.4,0,0.7-0.1,1-0.3l32.9,62.4c-0.5,0.5-0.8,1.1-0.9,1.9c-0.2,0.9,0,1.8,0.3,2.5l-35,32c-0.4-0.5-0.9-0.9-1.4-1c0,0-0.1,0-0.1,0
			L101.4,182.7z M160.6,158.8L126,170.4l-3.5-23.3c0.8-0.3,1.4-1,1.8-2l36.3,12.7C160.6,158.2,160.6,158.5,160.6,158.8z
			 M125.3,170.6l-21.4,7.1c-0.2-0.5-0.4-0.9-0.7-1.3l17.1-29.6c0.2,0.1,0.5,0.3,0.7,0.3c0.3,0.1,0.5,0.1,0.8,0.1L125.3,170.6z
			 M104.1,179.9c0.1-0.4,0.1-0.9,0-1.3l21.3-7.1l10.9,72.6c-0.1,0.1-0.2,0.1-0.4,0.2l-32.8-62.4
			C103.6,181.5,103.9,180.8,104.1,179.9z M140.5,284.7l-40.1-1.4c0-0.5-0.2-0.9-0.3-1.4l35-32c0.4,0.5,0.9,0.9,1.4,1
			c0.2,0.1,0.4,0.1,0.6,0.1L140.5,284.7z M137.9,251c0.3-0.1,0.6-0.3,0.9-0.5l24.1,33.2c-0.3,0.4-0.5,0.9-0.6,1.5c0,0.1,0,0.2,0,0.2
			l-21-0.7L137.9,251z M99.6,286.2L143,328c-0.1,0.3-0.3,0.6-0.3,1c-0.2,1,0,1.9,0.4,2.7l-25.6,26.7l-18.6-71.5
			C99.1,286.7,99.4,286.5,99.6,286.2z M143.5,332.4c0.1,0.1,0.1,0.1,0.2,0.2l-19.9,43.9c-0.1-0.1-0.3-0.1-0.4-0.2
			c-0.4-0.1-0.8-0.1-1.2,0l-4.4-17L143.5,332.4z M143.4,327.3l-43.4-41.8c0.1-0.3,0.3-0.6,0.3-1c0-0.1,0-0.2,0-0.2l40.2,1.4
			l4.1,40.7C144.2,326.5,143.8,326.8,143.4,327.3z M141.4,285.6l20.9,0.7c0.1,1.1,0.5,2,1.2,2.6l-17.3,37.4c0,0-0.1,0-0.1,0
			c-0.2-0.1-0.4-0.1-0.6-0.1L141.4,285.6z M163.5,283.1l-24.1-33.2c0.3-0.4,0.5-0.9,0.6-1.5c0.1-0.3,0.1-0.6,0.1-0.9l24.1-4.6
			l0.5,39.6C164.2,282.5,163.8,282.7,163.5,283.1z M139.9,246.6c-0.2-0.9-0.7-1.7-1.4-2.2l24.3-82.4c0,0,0,0,0,0
			c0.1,0,0.2,0.1,0.3,0.1l1,79.9L139.9,246.6z M137.8,244c-0.3-0.1-0.5-0.1-0.8-0.1l-10.9-72.7l34.6-11.6c0.2,0.8,0.7,1.5,1.3,1.9
			L137.8,244z M161.1,156.5l-78-47.1c0-0.1,0.1-0.2,0.1-0.3c0,0,0-0.1,0-0.1l61.6,4.7l17,42C161.6,155.8,161.3,156.1,161.1,156.5z
			 M159.5,156.5l-35-12.3c0.2-1.8-0.7-3.6-2.2-4c-1-0.3-2.1,0.2-2.8,1.1l-35-30.1L159.5,156.5z M119.7,146.3L102.6,176
			c-0.2-0.1-0.4-0.2-0.7-0.3c-0.4-0.1-0.9-0.1-1.3,0l-5.5-18.6l24-11.6C119.3,145.8,119.5,146.1,119.7,146.3z M100,176
			c-0.7,0.5-1.3,1.3-1.5,2.4c0,0.2-0.1,0.4-0.1,0.6l-59.6,5.7c0,0,0-0.1,0-0.1l55.7-27.1L100,176z M38.8,186.1
			c0-0.2,0.1-0.4,0.1-0.6l59.6-5.7c0.1,0.7,0.4,1.3,0.7,1.7L76,217.4l-37.4-30.5C38.7,186.7,38.7,186.4,38.8,186.1z M76.1,218.6
			L93.8,233c-0.1,0.2-0.2,0.5-0.2,0.8c-0.1,0.5-0.1,1,0,1.4l-36.4,14.3c-0.1-0.4-0.3-0.7-0.5-1L76.1,218.6z M57.4,251.8
			c0.1-0.5,0.1-1,0-1.4l36.4-14.3c0.2,0.5,0.5,1,0.9,1.3L78.9,269l-21.7-16.5C57.3,252.2,57.3,252,57.4,251.8z M79.1,270.2l15.8,12
			c-0.1,0.2-0.1,0.4-0.2,0.7c-0.1,0.6-0.1,1.1,0,1.6l-28.2,13.4c-0.2-0.4-0.4-0.8-0.7-1.1L79.1,270.2z M66.9,300.4
			c0.1-0.6,0.1-1.1,0-1.6l26.6-12.6l-28.1,20.2l-0.4-3.4C65.9,302.6,66.7,301.7,66.9,300.4z M95.3,285.9c0.3,0.5,0.8,1,1.3,1.2
			L77.7,397l-0.2,0.2c-0.1,0-0.1,0-0.2,0l-11.8-89.9L95.3,285.9z M97.4,287.3c0.3,0,0.5,0,0.8,0l18.7,71.8l-37.5,39.2
			c-0.3-0.3-0.6-0.6-1-0.8L97.4,287.3z M117.1,360l4.3,16.7c-0.8,0.5-1.4,1.3-1.6,2.4c-0.1,0.5-0.1,1.1,0,1.6l-11.2,5.2l-28.8,13.3
			c0-0.1-0.1-0.2-0.1-0.2L117.1,360z M124.4,377l20-43.9c0.1,0.1,0.3,0.1,0.4,0.2c0.7,0.2,1.4,0,2-0.4l9,17l-31,27.6
			C124.7,377.3,124.5,377.2,124.4,377z M147.4,332.4c0.4-0.5,0.7-1.1,0.8-1.8c0.1-0.4,0.1-0.8,0.1-1.2l44.6-13.1
			c0,0.1,0.1,0.3,0.2,0.4l-36.6,32.5L147.4,332.4z M192.8,314.3c-0.1,0.4-0.1,0.8-0.1,1.1l-44.6,12.9c-0.1-0.2-0.1-0.4-0.2-0.5
			l28.6-30.8l16.7,16.2C192.9,313.6,192.8,313.9,192.8,314.3z M177,296.5l20.5-22.1c0.3,0.4,0.7,0.7,1.1,0.9l-3.1,36.3
			c-0.7,0-1.4,0.4-2,1L177,296.5z M224.4,233.1L201,268.8c-0.3-0.2-0.6-0.4-0.9-0.4c-1.5-0.4-3.1,0.8-3.4,2.7
			c-0.1,0.4-0.1,0.9,0,1.3l-29,12c0,0,0,0,0-0.1L224.4,233.1C224.4,233.1,224.4,233.1,224.4,233.1z M165.4,161.2l58.8,67.4
			c-0.2,0.4-0.4,0.8-0.5,1.3c-0.1,0.3-0.1,0.6-0.1,0.9l-58.7,11.1l-1-79.8C164.4,162,164.9,161.7,165.4,161.2z M181.6,118.9
			l-17.1,36.3c-0.1-0.1-0.3-0.1-0.4-0.2c-0.5-0.2-1.1-0.1-1.5,0.1l-16.8-41.6l34.7,2.6C180.5,117.3,180.9,118.3,181.6,118.9z
			 M112.2,30.4l68.9,83.4c-0.3,0.4-0.5,0.9-0.6,1.5c0,0,0,0,0,0.1l-35.2-2.7l-33.3-82.1C112.1,30.5,112.2,30.4,112.2,30.4z
			 M109.6,31c0.1,0,0.2,0.1,0.2,0.1c0.5,0.2,1.1,0.1,1.6-0.1l33.1,81.6l-61.2-4.6c-0.1-1.1-0.6-2.2-1.3-2.8L109.6,31z M82.5,110.6
			l36.6,31.5c-0.1,0.3-0.2,0.5-0.2,0.8c-0.1,0.6-0.1,1.1,0,1.6l-23.9,11.6l-13.2-44.9C82,111.1,82.3,110.9,82.5,110.6z M79,111.3
			c0.2,0.1,0.5,0.3,0.7,0.3c0.4,0.1,0.9,0.1,1.3,0l13.2,44.9l-55.7,27.1c-0.1-0.3-0.3-0.6-0.6-0.9L79,111.3z M54,247.5l-16.7-59
			c0.3-0.2,0.6-0.5,0.9-0.9l37.3,30.4L56.1,248c-0.3-0.2-0.6-0.4-0.9-0.4C54.8,247.4,54.4,247.4,54,247.5z M55.6,254.3
			c0.5-0.2,0.9-0.6,1.2-1.1l21.7,16.5l-13.2,26.6c-0.2-0.1-0.4-0.2-0.6-0.2c-0.3-0.1-0.6-0.1-1-0.1L55.6,254.3z M62,302
			c0.4,0.5,0.9,0.9,1.4,1c0.2,0.1,0.5,0.1,0.7,0.1l0.5,3.7l-38.4,27.6L62,302z M23.1,337.9l41.7-30l11.7,89.5
			c-0.4,0.1-0.8,0.4-1.1,0.8l-52.6-56.9c0.2-0.4,0.3-0.7,0.4-1.2C23.4,339.3,23.4,338.5,23.1,337.9z M22.4,341.9L75,398.8
			c-0.2,0.3-0.3,0.7-0.4,1l-42.8-7.6l-10.3-49.7C21.9,342.4,22.1,342.2,22.4,341.9z M7.1,384.9l12.7-42.2c0,0,0,0,0,0
			c0.3,0.1,0.7,0.1,1,0.1l10.2,49.3l-22.5-4C8.6,386.8,8,385.6,7.1,384.9z M38.5,431.5L7.9,390.4c0.3-0.4,0.4-0.8,0.6-1.3l22.8,4
			l7.9,38C38.9,431.2,38.7,431.3,38.5,431.5z M40.8,430.9c-0.3-0.1-0.7-0.1-1-0.1l-7.8-37.6l41.9,7.4l-31.8,31.2
			C41.8,431.4,41.4,431,40.8,430.9z M43.1,434c0-0.5-0.2-1-0.4-1.5l31.9-31.2c0.2,1.4,1,2.6,2.2,3c1.2,0.3,2.3-0.3,3-1.4l53.2,34.7
			L43.1,434z M80.1,402c0-0.1,0.1-0.3,0.1-0.4c0-0.2,0-0.3,0.1-0.5l47.8-2.1l6,38.1L80.1,402z M134.7,437.3l-6-38.2l49.2-2.1
			c0.1,0.4,0.2,0.8,0.3,1.1L134.7,437.3z M178.1,395.1l-52.5-14.9c0.1-0.7-0.1-1.4-0.3-2l31-27.6l22.7,43
			C178.5,394,178.2,394.5,178.1,395.1z M179.5,393.1l-22.7-43l36.6-32.6c0.3,0.4,0.7,0.7,1.1,0.9L181,392.8
			C180.5,392.7,180,392.8,179.5,393.1z M181.8,393l13.5-74.3c0.3,0,0.5,0,0.8,0l15.9,60.5l-28.7,15.4
			C182.9,393.8,182.4,393.3,181.8,393z M221.5,421.3l-38.1-23.8c0-0.1,0.1-0.3,0.1-0.4c0.1-0.6,0.1-1.2,0-1.8l28.7-15.3l10.5,40
			C222.2,420.4,221.8,420.8,221.5,421.3z M224.6,419.8c-0.4-0.1-0.8-0.1-1.2,0l-10.5-40.1l45.5-24.3c0.2,0.3,0.3,0.5,0.6,0.8
			l-6.2,11.7l-27.5,52.3C225,420,224.8,419.9,224.6,419.8z M225.8,420.6l27.3-51.7l6.5-12.2c0.2,0.1,0.4,0.2,0.5,0.2
			c0.5,0.2,1.1,0.1,1.6-0.1l12.4,27.3l-47.9,37C226,420.9,225.9,420.7,225.8,420.6z M226.5,421.8l47.9-37l10.7,23.5
			c-0.5,0.5-0.9,1.2-1.1,2.1c0,0.3-0.1,0.5-0.1,0.8l-57.2,11.1C226.6,422.2,226.6,422,226.5,421.8z M226.8,423.2l57.2-11.1
			c0.3,1.2,1.1,2.3,2.1,2.6c0.3,0.1,0.7,0.1,1,0.1l7.7,36.7l-68-27.8C226.8,423.5,226.8,423.4,226.8,423.2z M309.4,525.4
			l-81.3-100.2l66.9,27.3l15.1,72.4C309.9,525,309.6,525.2,309.4,525.4z M310.8,524.7l-15-71.9l27.1,11.1c-0.3,1.7,0.5,3.3,1.7,3.9
			l-13,56.9C311.4,524.6,311.1,524.6,310.8,524.7z M313.5,526.1c-0.3-0.5-0.7-0.9-1.2-1.2l13-56.9c1.5,0.3,2.9-0.9,3.2-2.7
			c0-0.1,0-0.2,0-0.3l68.3,1.8c0,0.3,0.1,0.6,0.2,0.9L313.5,526.1z M397,465.7c0,0.1,0,0.2,0,0.3l-68.3-1.8c0-0.6-0.2-1.1-0.5-1.6
			l36.3-39.4l33,41.1C397.2,464.7,397.1,465.2,397,465.7z M398,463.7l-33-41.1l29.3-31.8c0.3,0.3,0.7,0.6,1.1,0.7
			c0.2,0.1,0.4,0.1,0.6,0.1l3.2,71.4C398.8,463.1,398.4,463.3,398,463.7z M400.4,463c-0.1,0-0.3-0.1-0.4-0.1l-3.2-71.4
			c0.1,0,0.1,0,0.2-0.1l20.6,64.1l-15.4,9C401.8,463.8,401.2,463.2,400.4,463z M425.7,512.3c-0.2-0.2-0.5-0.3-0.8-0.4
			c-0.6-0.2-1.3-0.1-1.8,0.2l-21.5-42.9c0,0,0.1-0.1,0.1-0.1l28.7,30.4c-0.2,0.3-0.3,0.7-0.4,1.2c-0.2,1.2,0.1,2.5,0.8,3.3
			L425.7,512.3z M426.3,512.9l5.1-8.3c0.2,0.2,0.5,0.3,0.8,0.4c0.8,0.2,1.5,0,2.1-0.4l5.4,8.5l-12.7,1.5
			C426.9,513.9,426.6,513.3,426.3,512.9z M457.8,541.9l-31-25c0.1-0.2,0.2-0.5,0.2-0.7c0-0.2,0.1-0.5,0.1-0.7l13.2-1.6l17.7,27.8
			C457.9,541.8,457.9,541.9,457.8,541.9z M460.6,540.8c-0.8-0.2-1.5,0-2.1,0.4l-17.4-27.4l68-8.1c0,0.2,0.1,0.4,0.2,0.6L462.2,542
			C461.8,541.4,461.3,541,460.6,540.8z M529.3,540.8c0,0.1,0,0.3-0.1,0.4l-66.4,2.5c0-0.1,0-0.2,0-0.3l55.5-26.2l11.9,21.7
			C529.7,539.4,529.4,540,529.3,540.8z M533.5,538.4c-0.2-0.2-0.5-0.3-0.8-0.4c-0.7-0.2-1.4-0.1-1.9,0.3L519,516.9l37-17.5
			c0.1,0.4,0.3,0.7,0.5,1.1L533.5,538.4z M555.8,497.3c0,0.1,0,0.3-0.1,0.4l-41,6.4c-0.1-0.5-0.3-0.9-0.5-1.3l26.8-34.9l15.8,27.4
			C556.3,495.7,555.9,496.4,555.8,497.3z M558.5,494.5c-0.4,0-0.7,0.1-1,0.3l-15.9-27.7l18.5-24c0.3,0.2,0.6,0.4,0.9,0.5
			c0.1,0,0.3,0.1,0.4,0.1L558.5,494.5z M561.2,496.6c-0.3-1-1.1-1.8-2-2.1c0,0,0,0,0,0l2.9-50.9c0.3-0.1,0.5-0.2,0.8-0.3l22.1,41.2
			c-1.1,0.9-1.5,2.6-1.1,4.1L561.2,496.6z M561.5,498.4l-0.1,0.4l0,0c0.1-0.4,0.1-0.9,0-1.3l22.8-8.1c0.8,1.5,2.4,2.1,3.7,1.3
			c0.1-0.1,0.2-0.1,0.2-0.2l4.1,7.6l7.9,14.7c-0.1,0.1-0.2,0.3-0.3,0.4c-0.1,0.1-0.2,0.3-0.3,0.4L561.5,498.4z M653.8,512.9
			l-48.8,1.8c0-0.4-0.1-0.7-0.3-1.1c-0.2-0.4-0.4-0.8-0.7-1l8.3-15.2l41.4,15.2C653.8,512.8,653.8,512.9,653.8,512.9z M654,511.9
			l-41.2-15.2l15-27.3c0.8,0.5,1.8,0.5,2.6,0c0,0,0,0,0,0l24,41.6C654.2,511.2,654.1,511.5,654,511.9z M656.3,509.7
			c-0.3,0-0.7,0.2-1,0.4c-0.1,0.1-0.2,0.2-0.3,0.3L631,468.8c0.3-0.3,0.5-0.6,0.6-1l26.5,8.6L656.3,509.7z M699,498.5l-39.7,13.7
			c0-0.2-0.1-0.4-0.2-0.5c-0.4-1.1-1.2-1.8-2.1-1.9l1.9-33.1l52.2,16.9c0,0.3,0,0.5,0.1,0.8L699,498.5z M711.2,492.6L659,475.7
			l2.8-48.6c0.4,0,0.8-0.2,1.1-0.4c0.1-0.1,0.2-0.2,0.4-0.3l48.3,65.2C711.4,491.9,711.3,492.2,711.2,492.6z M713.7,489.9
			c-0.3,0-0.7,0.2-1,0.4c-0.3,0.2-0.5,0.4-0.7,0.6l-48.2-65.1c0.3-0.4,0.4-0.8,0.6-1.3l53.9,9.9L713.7,489.9z M715.1,490.1
			c-0.2-0.1-0.4-0.2-0.6-0.2l4.5-55.4l18.1,3.3c0,0.6,0.1,1.1,0.3,1.6c0.2,0.5,0.5,0.9,0.9,1.3L715.1,490.1z M738.6,434.5
			c-0.8,0.5-1.3,1.3-1.5,2.3l-18.1-3.3l5.4-67.2c0.1,0,0.2,0,0.3,0l4.9,23.6l9.2,44.5C738.7,434.4,738.7,434.5,738.6,434.5z
			 M740.8,434.3c-0.4-0.2-0.8-0.2-1.3-0.2l-9.3-44.8l-4.8-23.3c0.1,0,0.2-0.1,0.2-0.1c0.4-0.3,0.8-0.7,1-1.1l32.1,21.6L740.8,434.3z
			 M759.5,386.9l48.9,32.9c-0.1,0.4-0.2,0.9-0.1,1.4l-65.6,15.5c0-0.2-0.1-0.4-0.2-0.6c-0.2-0.6-0.6-1-1-1.4L759.5,386.9z
			 M756.4,466.9l-14.6-26.5c0.6-0.7,1-1.8,1-2.8l65.7-15.5c0,0.2,0.1,0.3,0.1,0.4L756.4,466.9z M808.7,419L759.8,386l7.3-19.3
			c0.7,0.3,1.5,0.2,2.2-0.2c0.1-0.1,0.2-0.2,0.4-0.3l39.2,52.6C808.8,418.8,808.8,418.9,808.7,419z M809.8,417.7
			c-0.2,0.1-0.4,0.3-0.5,0.4l-39.2-52.6c0.3-0.4,0.5-1,0.6-1.5l46.6,5.2l-6.3,48C810.7,417.3,810.2,417.4,809.8,417.7z M812.4,417.7
			c-0.2-0.1-0.4-0.2-0.6-0.3l6.3-48l18.1,2c0,0.5,0.1,1,0.3,1.5c0.2,0.4,0.4,0.7,0.6,1L812.4,417.7z M850.4,432.1
			c-0.6,0.4-1.1,1-1.3,1.8L814,421.4c0.1-0.7,0-1.5-0.3-2.2c-0.2-0.4-0.4-0.8-0.7-1.1l24.7-43.7c0.5,0.3,1.1,0.5,1.7,0.4l11.2,57.2
			C850.6,432,850.5,432.1,850.4,432.1z M851.4,431.8l-11.2-57.2c0.1,0,0.2-0.1,0.3-0.1c0.2-0.1,0.4-0.3,0.6-0.5l28.8,31.6
			l-16.7,26.7C852.6,431.9,852,431.7,851.4,431.8z M912.4,453.2l-57.9-17.5c0.1-0.7,0-1.4-0.3-2c-0.1-0.3-0.3-0.6-0.5-0.9l16.6-26.7
			l42.3,46.4C912.6,452.8,912.5,453,912.4,453.2z M913.8,451.3c-0.2,0.1-0.4,0.3-0.6,0.5l-42.4-46.4l26.6-42.6
			c0.5,0.4,1.1,0.5,1.7,0.5l15,87.9C914,451.2,913.9,451.3,913.8,451.3z M915.3,451c-0.1,0-0.3,0-0.4,0l-15-87.9
			c0.1-0.1,0.2-0.1,0.3-0.2c0.1-0.1,0.3-0.2,0.4-0.3l23.8,31.5L915.3,451z M916.4,448.7l8.6-53.8l3.4,4.4c-0.7,1.1-0.9,2.6-0.3,3.9
			c0.3,0.7,0.7,1.2,1.2,1.6L916.4,448.7z M930.4,398.1c-0.4,0-0.7,0.2-1.1,0.4c-0.1,0.1-0.3,0.2-0.4,0.3l-3.7-4.9l7.7-48
			L930.4,398.1z M933.1,399.8c-0.4-0.9-1.2-1.5-1.9-1.7l2.6-55.4c0.4,0,0.8-0.2,1.1-0.4c0.8-0.5,1.4-1.5,1.5-2.5l83.5,13.1
			c0,0.5,0,0.9,0.2,1.4L933.1,399.8z M1019.9,352l-83.5-13.1c0-0.2,0-0.3-0.1-0.5l47.3-15.1l17.2-5.5c0,0.1,0.1,0.2,0.1,0.3
			c0.7,1.8,2.4,2.5,3.8,1.6l16.2,30.4C1020.5,350.6,1020.1,351.3,1019.9,352z M1021.6,349.7l-16.3-30.5c0.6-0.6,0.9-1.5,1-2.4
			l21.1-0.8l-4.5,33.5C1022.5,349.4,1022.1,349.5,1021.6,349.7z M1023.5,402.9l-0.4-46.3c0.3-0.1,0.6-0.2,0.9-0.4
			c1.4-0.9,2-3.1,1.3-4.8c-0.2-0.4-0.4-0.8-0.6-1l16.3-32.5c0,0,0,0,0.1,0L1023.5,402.9C1023.5,402.9,1023.5,402.9,1023.5,402.9z
			 M1024.8,403.5c-0.2-0.1-0.4-0.3-0.6-0.4l17.4-85c0.5,0.1,1.1,0,1.7-0.4c0.1-0.1,0.2-0.1,0.3-0.2l20.8,30.2L1024.8,403.5z
			 M1106.1,411.1l-80-4.9c0-0.5-0.1-0.9-0.3-1.3c-0.1-0.3-0.2-0.5-0.4-0.7l39.6-55.6l41.9,60.7
			C1106.4,409.7,1106.1,410.4,1106.1,411.1z M1107.6,408.4c-0.1,0.1-0.2,0.1-0.3,0.2l-41.9-60.8l16.3-22.9c0.6,0.5,1.5,0.7,2.2,0.5
			L1107.6,408.4C1107.6,408.4,1107.6,408.4,1107.6,408.4z M1108.3,408.1l-23.7-83c0.2-0.2,0.5-0.4,0.7-0.6l45.8,47.4l-20.7,36.6
			C1109.8,408.1,1109,407.9,1108.3,408.1z M1115.2,456.8l-5.4-41.7c0.1-0.1,0.3-0.1,0.4-0.2c0.5-0.3,0.9-0.8,1.1-1.3l34.4,18.6
			l-28.2,25.8C1117,457.1,1116.1,456.7,1115.2,456.8z M1214.4,469.5l-96.1-9.2c0-0.6-0.1-1.1-0.3-1.6c0,0,0,0,0-0.1l28.5-26.1
			l67.9,36.7C1214.5,469.3,1214.4,469.4,1214.4,469.5z M1215.9,467c-0.5,0.3-0.9,0.8-1.2,1.4l-67.6-36.5l49.6-45.5
			c0.6,0.8,1.5,1.2,2.5,1.1l16.8,79.4C1216.1,467,1216,467,1215.9,467z"/>
	</g>
	<g id="sAqoH7_1_">
		
			<image style="overflow:visible;" width="1428" height="981" id="sAqoH7" xlink:href="FA3E38443EBD9ED1.png"  transform="matrix(0.8564 0 0 0.8564 0 0)">
		</image>
	</g>
	<g id="YaQu5L_1_">
		
			<image style="overflow:visible;" width="1956" height="424" id="YaQu5L" xlink:href="FA3E38443EBD9ED3.png"  transform="matrix(0.6293 0 0 0.6293 0 852.0475)">
		</image>
	</g>
</g>
</svg>
